<?xml version="1.0" encoding="UTF-8" standalone="no"?>
<svg width="142px" height="153px" viewBox="0 0 142 153" version="1.1" xmlns="http://www.w3.org/2000/svg" xmlns:xlink="http://www.w3.org/1999/xlink">
    <!-- Generator: Sketch 50.2 (55047) - http://www.bohemiancoding.com/sketch -->
    <title>ICON residential</title>
    <desc>Created with Sketch.</desc>
    <defs></defs>
    <g id="mockups-v1" stroke="none" stroke-width="1" fill="none" fill-rule="evenodd">
        <g id="home-v2" transform="translate(-650.000000, -739.000000)" fill="#FFFFFF" fill-rule="nonzero">
            <g id="SECTION-services" transform="translate(80.000000, 645.000000)">
                <g id="ITEM-residential" transform="translate(438.000000, 0.000000)">
                    <g id="ITEM-content" transform="translate(0.000000, 94.859813)">
                        <g id="ICON-residential" transform="translate(131.855140, 0.000000)">
                            <path d="M135.984396,139.042739 L135.654945,139.042739 C134.533159,134.21404 131.129423,130.545799 126.694825,129.194637 L126.694825,73.0244421 L129.938559,76.294744 C131.225365,77.5924734 132.940518,78.3104166 134.767848,78.3172063 C134.776114,78.3172063 134.784675,78.3172063 134.792941,78.3172063 C136.610825,78.3172063 138.321253,77.6119571 139.611308,76.3298736 C142.282635,73.6753733 142.298281,69.3399649 139.645847,66.6665713 L124.344979,51.2405354 C123.483565,50.372332 122.081627,50.3667231 121.214014,51.2275463 C120.345811,52.0886648 120.339907,53.4906023 121.201025,54.3585106 L136.502189,69.7848417 C137.436518,70.7265517 137.430909,72.2536569 136.48979,73.1888723 C136.035467,73.6402436 135.432949,73.8888078 134.792646,73.8888078 C134.789693,73.8888078 134.786446,73.8888078 134.783789,73.8888078 C134.139943,73.8864462 133.535655,73.6334539 133.082512,73.1764736 L74.6132455,14.2295624 C73.854859,13.4649765 72.8880565,12.9879222 71.8409577,12.8394331 C71.6118771,12.8069604 71.3804349,12.7845247 71.1448598,12.7845247 C70.9807248,12.7845247 70.8180658,12.7924952 70.6568828,12.8084364 C69.5291925,12.9194342 68.4850458,13.414201 67.6764741,14.2295624 L9.2069124,73.1767688 C8.75347462,73.6340443 8.14948133,73.8867414 7.50563511,73.889103 C7.50268304,73.889103 7.49973097,73.889103 7.4967789,73.889103 C6.85647516,73.889103 6.2536627,73.6405388 5.7993393,73.1891675 C4.85821974,72.2539521 4.85261081,70.7268469 5.78694061,69.7848417 L70.2403459,4.8047873 C70.4812347,4.56183203 70.8024198,4.42810331 71.1445646,4.42810331 C71.4867094,4.42810331 71.8078945,4.56183203 72.0487833,4.8047873 L111.509088,44.5874578 C112.370502,45.4556613 113.772144,45.4612702 114.640052,44.6004469 C115.508256,43.7393284 115.51416,42.3373909 114.653041,41.4694827 L75.1933271,1.68681215 C74.1143459,0.598974774 72.6766884,0 71.1448598,0 C69.6130313,0 68.1753737,0.598974774 67.0966878,1.68681215 L39.4797883,29.5292497 L39.4797883,26.7832353 L40.0090942,26.7832353 C41.6321417,26.7832353 42.9526021,25.4624796 42.9526021,23.8394322 L42.9526021,17.8555886 C42.9526021,16.2325411 41.6321417,14.9117855 40.0090942,14.9117855 L17.7460668,14.9117855 C16.1230194,14.9117855 14.8025589,16.2325411 14.8025589,17.8555886 L14.8025589,23.8397274 C14.8025589,25.4627748 16.1230194,26.7835305 17.7460668,26.7835305 L18.2753728,26.7835305 L18.2753728,50.9063612 L2.64328247,66.6665713 C-0.00885620662,69.3405553 0.00649455152,73.675078 2.67782167,76.330464 C3.96817098,77.6125475 5.67830448,78.3175016 7.49618849,78.3175016 C7.50445428,78.3175016 7.51301528,78.3175016 7.52128107,78.3175016 C9.3486117,78.311007 11.0637637,77.5930639 12.3505705,76.2953344 L15.5943038,73.0250325 L15.5943038,100.458313 C15.5943038,101.681355 16.5856085,102.672365 17.8083555,102.672365 C19.0311024,102.672365 20.0224071,101.681355 20.0224071,100.458313 L20.0224071,68.5606187 L70.8201322,17.3481279 C70.9308348,17.2365397 71.0577738,17.2129232 71.1445646,17.2129232 C71.2313554,17.2129232 71.3582944,17.2365397 71.468997,17.3481279 L122.266427,68.5606187 L122.266427,128.20717 C122.232773,128.170269 122.196758,128.13573 122.162809,128.099125 C122.073952,128.002887 121.982733,127.909307 121.891514,127.815726 C121.788782,127.710337 121.685755,127.605539 121.580661,127.503397 C121.48649,127.411883 121.390548,127.32273 121.294311,127.233873 C121.187151,127.134979 121.079105,127.03697 120.969288,126.941323 C120.870394,126.854828 120.770023,126.770398 120.668767,126.686855 C120.557179,126.594455 120.444705,126.503236 120.33046,126.414084 C120.226842,126.333197 120.122634,126.253786 120.01695,126.175261 C119.900934,126.089061 119.784032,126.004927 119.665949,125.921974 C119.558494,125.846696 119.450448,125.772599 119.340927,125.699978 C119.220777,125.620272 119.099152,125.542633 118.976937,125.466174 C118.865939,125.396801 118.754646,125.328313 118.641877,125.261891 C118.517595,125.188385 118.391836,125.117535 118.265488,125.047866 C118.151243,124.984692 118.036998,124.921813 117.921277,124.861591 C117.792862,124.794579 117.662971,124.730814 117.532784,124.66764 C117.415883,124.61096 117.299276,124.553985 117.181193,124.500257 C117.048645,124.43974 116.914621,124.38306 116.780302,124.326085 C116.661334,124.2759 116.542661,124.225125 116.422216,124.177596 C116.285535,124.123869 116.147083,124.073979 116.008631,124.024089 C115.888482,123.980693 115.768628,123.936117 115.647003,123.895674 C115.505304,123.848441 115.361833,123.805636 115.218658,123.762535 C115.098213,123.726225 114.978359,123.688438 114.856734,123.654785 C114.709426,123.614342 114.560642,123.578917 114.412152,123.542606 C114.292298,123.513381 114.17333,123.482089 114.052886,123.455815 C113.899083,123.422162 113.743804,123.394117 113.58882,123.365187 C113.471623,123.343046 113.355017,123.318544 113.236934,123.299356 C113.073684,123.272492 112.908664,123.252418 112.744234,123.230868 C112.632941,123.216403 112.522533,123.19869 112.410945,123.186292 C112.227031,123.166217 112.041936,123.153524 111.857137,123.140239 C111.763261,123.13345 111.670271,123.122822 111.5761,123.117804 C111.296539,123.102453 111.016092,123.094482 110.734465,123.094482 C109.349059,123.094482 107.996421,123.276625 106.704005,123.622017 C102.08756,124.855096 98.2345198,128.166727 96.3620225,132.680735 C96.15154,132.764279 95.9469616,132.854317 95.7459258,132.947898 C95.6874748,132.975057 95.6310903,133.004282 95.5735249,133.032327 C95.4330065,133.100815 95.293964,133.170779 95.1581688,133.244285 C95.0917473,133.280301 95.0262114,133.317201 94.9609706,133.354102 C94.8352125,133.425542 94.7115208,133.499049 94.5901908,133.574622 C94.5279021,133.613589 94.4653183,133.652261 94.4039152,133.692114 C94.2746146,133.776543 94.1488565,133.86422 94.0248696,133.953372 C93.9782269,133.987026 93.9301082,134.019499 93.8840559,134.053743 C93.715788,134.179501 93.5519482,134.309097 93.3940125,134.444006 C93.3774809,134.458176 93.3621301,134.473527 93.3455986,134.487697 C93.2059657,134.608436 93.0704657,134.732719 92.9390987,134.860543 C92.8921608,134.9063 92.8472893,134.953533 92.8015323,135.000176 C92.702638,135.100546 92.6055149,135.202393 92.5113439,135.306896 C92.4626348,135.361214 92.4148112,135.415827 92.3672829,135.471326 C92.2781305,135.575239 92.1913396,135.681513 92.1069105,135.789264 C92.0638103,135.844172 92.0204148,135.898491 91.9784955,135.95458 C91.8855053,136.078862 91.7963528,136.206391 91.709562,136.335692 C91.6818125,136.376726 91.6525871,136.416579 91.625428,136.458203 C91.5132494,136.630899 91.4060893,136.807728 91.3048333,136.98869 C91.2859401,137.022638 91.2691133,137.058063 91.2505153,137.092012 C91.170219,137.239615 91.0925796,137.389581 91.0196635,137.542498 C90.9898476,137.604786 90.9620982,137.668551 90.9334631,137.731725 C90.8750121,137.861026 90.8186276,137.991803 90.7651952,138.124646 C90.7368553,138.194905 90.7094011,138.265459 90.6828324,138.336899 C90.6323521,138.471219 90.5848237,138.607604 90.5396571,138.745466 C90.5172214,138.813954 90.4936048,138.881851 90.4723499,138.951225 C90.4626081,138.982517 90.4513902,139.012628 90.4419436,139.044215 L86.9546647,139.044215 L86.9546647,96.3395868 C86.9546647,93.2800626 84.4654802,90.7908782 81.405956,90.7908782 L60.8846492,90.7908782 C57.8251251,90.7908782 55.3359406,93.2800626 55.3359406,96.3395868 L55.3359406,139.042739 L51.8483664,139.042739 C51.8395102,139.012628 51.8285876,138.983993 51.8194361,138.953882 C51.7967052,138.88008 51.7719078,138.807754 51.7479961,138.734838 C51.7043055,138.602586 51.6585484,138.471219 51.6101345,138.341918 C51.5817946,138.266345 51.5525691,138.191067 51.522458,138.116675 C51.4713872,137.989736 51.4173644,137.864864 51.3615703,137.741467 C51.3305735,137.672684 51.3004624,137.60331 51.2679897,137.535413 C51.1995017,137.392828 51.127176,137.2529 51.0524887,137.115038 C51.0288721,137.071347 51.007322,137.025886 50.9828198,136.982785 C50.8830399,136.804776 50.7779463,136.631194 50.6675389,136.46145 C50.6353613,136.411855 50.6002317,136.364032 50.5671685,136.315027 C50.4856914,136.194583 50.4024431,136.075024 50.3156523,135.958713 C50.2701904,135.8979 50.2229573,135.838564 50.1760194,135.778932 C50.0954279,135.676495 50.0130652,135.575239 49.9280456,135.476345 C49.87727,135.417008 49.8261992,135.358262 49.7739476,135.300401 C49.6844999,135.201212 49.5921002,135.104384 49.4979292,135.008737 C49.447744,134.957666 49.3984445,134.90571 49.3467833,134.855525 C49.2239772,134.736261 49.0970382,134.62054 48.9671472,134.50718 C48.9420546,134.485335 48.9181429,134.461719 48.8927551,134.440168 C48.7368858,134.307325 48.5754077,134.179501 48.4097966,134.055514 C48.3581354,134.016842 48.3038173,133.980236 48.2512705,133.94245 C48.1331877,133.857725 48.0139242,133.774477 47.8911181,133.694181 C47.8255822,133.651376 47.7585702,133.610047 47.6918535,133.568423 C47.5752467,133.495802 47.4565736,133.425247 47.3358339,133.356759 C47.2664603,133.317201 47.1970867,133.278234 47.1265323,133.239857 C46.996346,133.169598 46.8635029,133.102586 46.7288886,133.03705 C46.6657143,133.006349 46.6037209,132.974171 46.539661,132.944355 C46.3401011,132.85166 46.1369988,132.762508 45.9279923,132.679259 C43.5312076,126.90147 37.8895088,123.092711 31.5552546,123.092711 C31.2736272,123.092711 30.9931807,123.100977 30.7136198,123.116032 C30.6188583,123.121346 30.5249825,123.131678 30.4305163,123.138763 C30.2463072,123.152048 30.0620982,123.164741 29.8790699,123.184816 C29.7665961,123.197214 29.6550079,123.214927 29.5428292,123.229687 C29.3792846,123.251237 29.2154448,123.271311 29.0527858,123.29788 C28.9338174,123.317363 28.8163251,123.342161 28.6979471,123.364301 C28.5441443,123.393232 28.3900463,123.420981 28.2371292,123.454339 C28.1149135,123.481203 27.9941739,123.51279 27.8728439,123.542606 C27.7261261,123.578621 27.579113,123.613456 27.433576,123.653604 C27.3101795,123.687553 27.1885543,123.72593 27.0663387,123.763126 C26.9249346,123.805931 26.7835305,123.84785 26.6436024,123.894788 C26.5205011,123.935822 26.3991711,123.980988 26.2769554,124.024974 C26.1402747,124.074274 26.0038891,124.123278 25.8686843,124.176415 C25.7464687,124.224534 25.6260243,124.276195 25.5049894,124.327266 C25.3727367,124.38306 25.2407793,124.43915 25.1102978,124.498486 C24.9898534,124.553395 24.8711802,124.611255 24.7525071,124.669116 C24.6243873,124.731404 24.4965627,124.794283 24.3702142,124.860115 C24.2524266,124.921518 24.1361151,124.985282 24.0200988,125.049637 C23.8958167,125.118421 23.7718298,125.188089 23.6496141,125.260415 C23.5350739,125.328018 23.4220096,125.397686 23.3089454,125.468241 C23.188501,125.543519 23.0692374,125.619682 22.9508594,125.698207 C22.8395664,125.772009 22.7297495,125.847286 22.6205229,125.92404 C22.5042114,126.005517 22.3890807,126.08847 22.2751309,126.173195 C22.1679708,126.252901 22.0616963,126.333492 21.9566026,126.415855 C21.844424,126.503827 21.7334262,126.593569 21.6236093,126.684493 C21.5211725,126.769513 21.4193261,126.855123 21.3189558,126.942799 C21.2106148,127.037265 21.1040452,127.134093 20.9980659,127.231807 C20.9006476,127.321845 20.8035245,127.412178 20.7081727,127.504578 C20.6039647,127.605834 20.5021183,127.709156 20.4005671,127.813364 C20.3081674,127.908126 20.2160628,128.002887 20.1260247,128.100305 C20.0923712,128.136616 20.0569463,128.17086 20.023588,128.207465 L20.023588,114.215545 C20.023588,112.992503 19.0322832,112.001493 17.8095363,112.001493 C16.5867894,112.001493 15.5954846,112.992503 15.5954846,114.215545 L15.5954846,129.185781 C11.1538018,130.530448 7.75538013,134.209612 6.63477479,139.043329 L6.30561911,139.043329 C2.96889566,139.043329 0.25417313,141.757757 0.25417313,145.094775 C0.25417313,148.431794 2.96889566,151.146221 6.30561911,151.146221 L135.984691,151.146221 C139.32171,151.146221 142.036137,148.431794 142.036137,145.094775 C142.036137,141.757757 139.321119,139.042739 135.984396,139.042739 Z M35.0510945,33.9933683 L22.7034761,46.4422427 L22.7034761,26.7835305 L35.0510945,26.7835305 L35.0510945,33.9933683 Z M19.2306623,19.340184 L38.5239084,19.340184 L38.5239084,22.3554272 L19.2306623,22.3554272 L19.2306623,19.340184 Z M95.2502734,139.035359 C95.3320457,138.900154 95.4203126,138.770558 95.5135979,138.6448 C95.540757,138.607899 95.5702777,138.573065 95.5986175,138.53705 C95.6679911,138.448488 95.7397264,138.361697 95.814709,138.278153 C95.8510194,138.23771 95.8885107,138.197857 95.926002,138.158594 C96.0015749,138.079479 96.0803952,138.003316 96.1615771,137.928628 C96.1987731,137.894384 96.2353788,137.85955 96.2737557,137.826191 C96.3844583,137.730249 96.4995889,137.637849 96.6200334,137.549878 C96.6303656,137.542202 96.6398122,137.533937 96.6501445,137.526261 C96.7818067,137.4315 96.9202588,137.342347 97.0634341,137.257033 C97.1062391,137.231645 97.1511105,137.207733 97.1948012,137.183231 C97.2993044,137.124485 97.4058741,137.06751 97.5159863,137.013192 C97.5691235,136.986918 97.6231464,136.961531 97.6777596,136.936438 C97.7893478,136.885072 97.9041833,136.836658 98.0210852,136.790015 C98.0724512,136.769646 98.1229316,136.748391 98.1754784,136.728612 C98.3452224,136.665438 98.5190993,136.605511 98.7000611,136.552079 C99.3932068,136.346615 99.9422917,135.815537 100.170782,135.129772 C101.688145,130.578862 105.93322,127.521405 110.734465,127.521405 C114.327723,127.521405 117.71965,129.271391 119.808239,132.202205 C120.278208,132.861107 121.069068,133.212108 121.873802,133.11587 C122.055059,133.09432 122.236316,133.079265 122.417573,133.069523 C122.467463,133.066866 122.516762,133.066866 122.566652,133.065095 C122.694182,133.060372 122.821711,133.057419 122.948945,133.058305 C123.065552,133.059191 123.182749,133.065095 123.299946,133.070999 C123.375224,133.074837 123.450502,133.076313 123.525779,133.082217 C123.71235,133.096682 123.899216,133.116461 124.086673,133.14362 C124.091396,133.14421 124.096119,133.144505 124.100842,133.145391 C126.969073,133.563699 129.881584,135.459518 131.071858,139.043034 L95.2461405,139.043034 C95.2476165,139.040377 95.2487974,139.038016 95.2502734,139.035359 Z M60.8840588,95.2189815 L81.4053656,95.2189815 C82.0232336,95.2189815 82.5259709,95.7217188 82.5259709,96.3395868 L82.5259709,139.042739 L59.7637487,139.042739 L59.7637487,96.3395868 L59.7634535,96.3395868 C59.7634535,95.7217188 60.2661908,95.2189815 60.8840588,95.2189815 Z M18.1894676,133.144801 C18.1903532,133.144801 18.1909436,133.144801 18.1918292,133.144505 C18.3828281,133.116756 18.5735317,133.096682 18.763645,133.081922 C18.8386275,133.076313 18.9139053,133.074541 18.9888878,133.070704 C19.1063802,133.0648 19.2235773,133.058895 19.340184,133.05801 C19.4674182,133.057124 19.5949476,133.060076 19.7224769,133.0648 C19.7723669,133.066571 19.8216664,133.066571 19.8715564,133.069228 C20.0528134,133.079265 20.2340705,133.094025 20.4150323,133.115575 C21.2188806,133.210041 22.0109207,132.861402 22.4805949,132.20191 C24.5691836,129.270801 27.9611107,127.521109 31.554369,127.521109 C36.3553186,127.521109 40.6006888,130.578567 42.1183474,135.129477 C42.1756176,135.300992 42.2526666,135.462765 42.3471328,135.61214 C42.6305314,136.060559 43.0692088,136.397685 43.5890681,136.551783 C43.7703252,136.605511 43.9444972,136.665438 44.1145364,136.728612 C44.1661976,136.747801 44.2157924,136.76876 44.2665679,136.78913 C44.3846507,136.836068 44.5003718,136.884777 44.6125504,136.936438 C44.6665733,136.961235 44.7197105,136.986328 44.7725525,137.012306 C44.8832551,137.066919 44.9907104,137.12419 45.0958041,137.183526 C45.1389043,137.208028 45.1831853,137.23135 45.2253999,137.256442 C45.3685753,137.342052 45.5076177,137.431205 45.6395752,137.526261 C45.6490218,137.533051 45.6572876,137.540431 45.6667342,137.547221 C45.7883594,137.635783 45.9043758,137.729068 46.015964,137.825896 C46.0543409,137.858959 46.0903561,137.893794 46.1275522,137.927743 C46.2087341,138.00243 46.2878495,138.078889 46.3634225,138.158004 C46.4012089,138.197267 46.438405,138.237119 46.4747155,138.277563 C46.549698,138.361106 46.6211381,138.447602 46.6905117,138.535869 C46.7188516,138.572179 46.7486674,138.607309 46.7761217,138.64421 C46.8691119,138.769968 46.9573787,138.899269 47.0388558,139.034178 C47.0403319,139.036835 47.0415127,139.039492 47.0432839,139.041853 L11.2169761,139.041853 C12.4075455,135.458927 15.3209422,133.562814 18.1894676,133.144801 Z M135.984396,146.717823 L6.3053239,146.717823 C5.41025662,146.717823 4.68198123,145.989548 4.68198123,145.09448 C4.68198123,144.199413 5.41025662,143.471138 6.3053239,143.471138 L135.984396,143.471138 C136.879463,143.471138 137.607738,144.199413 137.607738,145.09448 C137.607738,145.989548 136.879463,146.717823 135.984396,146.717823 Z" id="Shape"></path>
                            <path d="M109.779766,95.8513146 L96.5940551,95.8513146 C94.8051014,95.8513146 93.3500267,97.3063894 93.3500267,99.0953431 L93.3500267,115.577334 C93.3500267,117.366288 94.8053966,118.821363 96.5940551,118.821363 L109.779766,118.821363 C111.56872,118.821363 113.023794,117.365993 113.023794,115.577334 L113.023794,99.0953431 C113.023794,97.3063894 111.568424,95.8513146 109.779766,95.8513146 Z M108.595986,114.393554 L97.77813,114.393554 L97.77813,100.279418 L108.595986,100.279418 L108.595986,114.393554 Z" id="Shape"></path>
                            <path d="M45.6953693,95.8513146 L32.5096585,95.8513146 C30.7207047,95.8513146 29.26563,97.3066846 29.26563,99.0953431 L29.26563,115.577334 C29.26563,117.366288 30.7209999,118.821363 32.5096585,118.821363 L45.6953693,118.821363 C47.484323,118.821363 48.9393978,117.365993 48.9393978,115.577334 L48.9393978,99.0953431 C48.9393978,97.3063894 47.4840278,95.8513146 45.6953693,95.8513146 Z M44.5112945,114.393259 L33.6934381,114.393259 L33.6934381,100.279123 L44.5112945,100.279123 L44.5112945,114.393259 Z" id="Shape"></path>
                            <path d="M95.51655,53.3246961 L73.0926349,30.7177526 C72.5736611,30.1940556 71.8816962,29.9056385 71.1445646,29.9056385 C70.407433,29.9056385 69.7154681,30.1940556 69.19738,30.7171622 C69.1950183,30.7195239 46.7755313,53.3223344 46.7731696,53.3246961 C45.9908714,54.1131937 45.7614956,55.285165 46.18866,56.3104185 C46.6158243,57.335672 47.6094907,57.9987067 48.7206495,57.9987067 L93.5690702,57.9987067 C94.6802289,57.9987067 95.6738953,57.3359673 96.1007644,56.3104185 C96.5279288,55.2848698 96.298553,54.1128985 95.51655,53.3246961 Z M68.930513,53.5706034 L52.7658694,53.5706034 L57.1989913,49.1011711 L68.930513,49.1011711 L68.930513,53.5706034 Z M68.930513,44.6727726 L61.5916697,44.6727726 L68.930513,37.2737072 L68.930513,44.6727726 Z M73.3589115,37.2737072 L80.6980499,44.6727726 L73.3589115,44.6727726 L73.3589115,37.2737072 Z M73.3589115,53.5706034 L73.3589115,49.1011711 L85.0904332,49.1011711 L89.523555,53.5706034 L73.3589115,53.5706034 Z" id="Shape"></path>
                            <path d="M76.9940891,114.468242 C75.8114903,114.468242 74.8532487,115.426483 74.8532487,116.609082 L74.8532487,121.033643 C74.8532487,122.216242 75.8114903,123.174483 76.9940891,123.174483 C78.1766879,123.174483 79.1349294,122.216242 79.1349294,121.033643 L79.1349294,116.609082 C79.1349294,115.426779 78.1766879,114.468242 76.9940891,114.468242 Z" id="Shape"></path>
                        </g>
                    </g>
                </g>
            </g>
        </g>
    </g>
</svg>