<?xml version="1.0" encoding="UTF-8" standalone="no"?>
<svg width="144px" height="142px" viewBox="0 0 144 142" version="1.1" xmlns="http://www.w3.org/2000/svg" xmlns:xlink="http://www.w3.org/1999/xlink">
    <!-- Generator: Sketch 50.2 (55047) - http://www.bohemiancoding.com/sketch -->
    <title>ICON commercial</title>
    <desc>Created with Sketch.</desc>
    <defs></defs>
    <g id="mockups-v1" stroke="none" stroke-width="1" fill="none" fill-rule="evenodd">
        <g id="home-v2" transform="translate(-211.000000, -749.000000)" fill="#FFFFFF" fill-rule="nonzero">
            <g id="SECTION-services" transform="translate(80.000000, 645.000000)">
                <g id="ITEM-commercial">
                    <g id="ITEM-content" transform="translate(0.948598, 104.345794)">
                        <g id="ICON-commercial" transform="translate(130.906542, 0.000000)">
                            <path d="M140.54139,44.0695162 L93.5060227,13.8071052 C92.5669662,13.2029297 91.3163729,13.4747253 90.7124754,14.413226 C90.1085778,15.3520047 90.3798176,16.6025979 91.3185962,17.2067734 L137.666415,47.0267523 L126.861846,47.0267523 L74.101818,13.0812053 C72.3056882,11.9256571 69.9843093,11.925935 68.1879016,13.0812053 L15.427874,47.0267523 L4.62330425,47.0267523 L71.1423586,4.22533769 L80.5632165,10.2865463 C81.502273,10.8904438 82.7525883,10.6192041 83.3567638,9.6804254 C83.9606614,8.74164674 83.6894216,7.4910535 82.750643,6.88687801 L73.3297852,0.825669447 C72.0024889,-0.0283467801 70.2875087,-0.0283467801 68.9602124,0.825669447 L1.74832935,44.0695162 C0.317094863,44.9905086 -0.322097236,46.7063226 0.157852658,48.3393194 C0.637802552,49.9723163 2.10377574,51.0695034 3.80569418,51.0695034 L14.0005303,51.0695034 L14.0005303,58.0366973 L14.0005303,64.1384807 C14.0005303,65.7472994 15.1416271,67.0946052 16.6567903,67.4133675 L16.6567903,70.9708884 C16.6567903,72.8162082 18.158058,74.3174759 20.0033778,74.3174759 L20.2812874,74.3174759 L20.2812874,99.082557 C20.2812874,100.19892 21.1861611,101.103794 22.302524,101.103794 C23.4188869,101.103794 24.3237606,100.19892 24.3237606,99.082557 L24.3237606,72.2962393 C24.3237606,71.1798764 23.4188869,70.2750027 22.302524,70.2750027 L20.6995414,70.2750027 L20.6995414,67.4847903 L35.0154991,67.4847903 L35.0154991,70.2744469 L33.4125164,70.2744469 C32.2961535,70.2744469 31.3912798,71.1793206 31.3912798,72.2956835 L31.3912798,116.954646 C31.3912798,118.071009 32.2961535,118.975883 33.4125164,118.975883 L35.0154991,118.975883 L35.0154991,122.009266 L20.6995414,122.009266 L20.6995414,118.975883 L22.302524,118.975883 C23.4188869,118.975883 24.3237606,118.071009 24.3237606,116.954646 L24.3237606,111.788306 C24.3237606,110.671943 23.4188869,109.76707 22.302524,109.76707 C21.1861611,109.76707 20.2812874,110.671943 20.2812874,111.788306 L20.2812874,114.933409 L20.0033778,114.933409 C18.158058,114.933409 16.6567903,116.434399 16.6567903,118.279719 L16.6567903,121.83724 C15.1413492,122.156002 14.0005303,123.503308 14.0005303,125.112127 L14.0005303,129.192396 L6.84046711,129.192396 C4.60607385,129.192396 2.7882671,131.010202 2.7882671,133.244596 L2.7882671,137.496335 C2.7882671,139.730728 4.60607385,141.548535 6.84046711,141.548535 L135.449253,141.548535 C137.683646,141.548535 139.501453,139.730728 139.501453,137.496335 L139.501453,133.244596 C139.501453,131.010202 137.683646,129.192396 135.449253,129.192396 L128.289189,129.192396 L128.289189,125.112127 C128.289189,123.503308 127.148093,122.156002 125.632929,121.83724 L125.632929,118.279719 C125.632929,116.434399 124.131662,114.933409 122.286342,114.933409 L122.008432,114.933409 L122.008432,74.3169201 L122.286342,74.3169201 C124.131662,74.3169201 125.632929,72.8156524 125.632929,70.9703326 L125.632929,67.4128117 C127.14837,67.0940494 128.289189,65.7467436 128.289189,64.1379249 L128.289189,58.0361415 L128.289189,51.0689476 L138.484025,51.0689476 C140.185944,51.0689476 141.651917,49.9717605 142.131867,48.3387636 C142.611817,46.7063226 141.972625,44.9902307 140.54139,44.0695162 Z M70.3750502,16.4808735 C70.8427721,16.1798974 71.4469476,16.1801753 71.9146694,16.4808735 L119.390802,47.0270302 L22.8991959,47.0270302 L70.3750502,16.4808735 Z M18.0430034,51.0692255 L124.246438,51.0692255 L124.246438,56.0151828 L102.596724,56.0151828 L82.9804742,56.0151828 L59.3092454,56.0151828 L39.6929957,56.0151828 L18.0430034,56.0151828 L18.0430034,51.0692255 Z M82.3457287,121.837796 L82.3457287,118.280275 C82.3457287,116.434955 80.844461,114.933965 78.9991412,114.933965 L78.7212316,114.933965 L78.7212316,74.3174759 L78.9991412,74.3174759 C80.844461,74.3174759 82.3457287,72.8162082 82.3457287,70.9708884 L82.3457287,67.4133675 C83.8611698,67.0946052 85.0019887,65.7472994 85.0019887,64.1384807 L85.0019887,60.0579339 L100.575487,60.0579339 L100.575487,64.1384807 C100.575487,65.7472994 101.716584,67.0946052 103.231747,67.4133675 L103.231747,70.9708884 C103.231747,72.8162082 104.733015,74.3174759 106.578335,74.3174759 L106.856245,74.3174759 L106.856245,114.933965 L106.578335,114.933965 C104.733015,114.933965 103.231747,116.434955 103.231747,118.280275 L103.231747,121.837796 C101.716584,122.156558 100.575487,123.503864 100.575487,125.112683 L100.575487,129.192951 L85.0019887,129.192951 L85.0019887,125.112683 C85.0019887,123.503864 83.8608919,122.156558 82.3457287,121.837796 Z M39.0579722,121.837796 L39.0579722,118.280275 C39.0579722,116.434955 37.5567045,114.933965 35.7113847,114.933965 L35.4334751,114.933965 L35.4334751,74.3174759 L35.7113847,74.3174759 C37.5567045,74.3174759 39.0579722,72.8162082 39.0579722,70.9708884 L39.0579722,67.4133675 C40.5731354,67.0946052 41.7142323,65.7472994 41.7142323,64.1384807 L41.7142323,60.0579339 L57.2880088,60.0579339 L57.2880088,64.1384807 C57.2880088,65.7472994 58.4291057,67.0946052 59.9442689,67.4133675 L59.9442689,70.9708884 C59.9442689,72.8162082 61.4455366,74.3174759 63.2908564,74.3174759 L63.568766,74.3174759 L63.568766,114.933965 L63.2908564,114.933965 C61.4455366,114.933965 59.9442689,116.434955 59.9442689,118.280275 L59.9442689,121.837796 C58.4291057,122.156558 57.2880088,123.503864 57.2880088,125.112683 L57.2880088,129.192951 L41.7142323,129.192951 L41.7142323,125.112683 C41.7142323,123.503864 40.5731354,122.156558 39.0579722,121.837796 Z M76.699995,118.975883 L78.3029776,118.975883 L78.3029776,122.009266 L63.9870199,122.009266 L63.9870199,118.975883 L65.5900026,118.975883 C66.7063655,118.975883 67.6112391,118.071009 67.6112391,116.954646 L67.6112391,72.2959614 C67.6112391,71.1795985 66.7063655,70.2744469 65.5900026,70.2744469 L63.9870199,70.2744469 L63.9870199,67.4847903 L78.3029776,67.4847903 L78.3029776,70.2744469 L76.699995,70.2744469 C75.5836321,70.2744469 74.6787584,71.1793206 74.6787584,72.2956835 L74.6787584,116.954646 C74.6787584,118.071009 75.5836321,118.975883 76.699995,118.975883 Z M61.9655054,63.4423171 L61.9566123,63.4423171 L61.330482,63.4423171 L61.330482,60.0579339 L80.9592376,60.0579339 L80.9592376,63.4423171 L80.3242142,63.4423171 C80.3228246,63.4423171 80.3211572,63.442595 80.3197676,63.442595 C80.3183781,63.442595 80.3167106,63.4423171 80.3153211,63.4423171 L61.9655054,63.4423171 Z M61.330482,125.952247 C61.5277978,126.016445 61.7378975,126.052295 61.9566123,126.052295 L80.3150432,126.052295 C80.5404279,126.052295 80.7566415,126.013665 80.9592376,125.945578 L80.9592376,129.192673 L61.330482,129.192673 L61.330482,125.952247 Z M18.6783048,63.4423171 L18.0432813,63.4423171 L18.0432813,60.0579339 L37.672037,60.0579339 L37.672037,63.4423171 L37.6717591,63.4423171 L37.0367356,63.4423171 L18.6783048,63.4423171 Z M18.0430034,125.948913 C18.2428204,126.015055 18.4559771,126.052295 18.6780269,126.052295 L37.0367356,126.052295 C37.2587854,126.052295 37.4719421,126.015055 37.6717591,125.948913 L37.6717591,129.192673 L18.0430034,129.192673 L18.0430034,125.948913 Z M135.458979,133.244874 L135.453421,137.506062 C135.453421,137.506062 135.45231,137.506339 135.449253,137.506339 L6.83074027,137.496891 L6.84046711,133.235425 L135.458979,133.244874 Z M123.605857,126.052017 C123.83013,126.052017 124.044954,126.013943 124.246716,125.946689 L124.246716,129.192673 L104.617961,129.192673 L104.617961,125.950858 C104.81611,126.015889 105.027321,126.052017 105.247426,126.052017 L123.605857,126.052017 Z M108.877203,70.2747248 L107.274221,70.2747248 L107.274221,67.4847903 L121.590178,67.4847903 L121.590178,70.2744469 L119.987196,70.2744469 C118.870833,70.2744469 117.965959,71.1793206 117.965959,72.2956835 L117.965959,116.954646 C117.965959,118.071009 118.870833,118.97616 119.987196,118.97616 L121.590178,118.97616 L121.590178,122.009544 L107.274221,122.009544 L107.274221,118.97616 L108.877203,118.97616 C109.993566,118.97616 110.89844,118.071287 110.89844,116.954924 L110.89844,72.2959614 C110.89844,71.1795985 109.993566,70.2747248 108.877203,70.2747248 Z M124.246994,63.4423171 L123.611693,63.4423171 C123.610859,63.4423171 123.609747,63.442595 123.608914,63.442595 C123.60808,63.442595 123.606968,63.4423171 123.606135,63.4423171 L105.253262,63.4423171 L105.247704,63.4423171 L104.618238,63.4423171 L104.618238,60.0579339 L124.246994,60.0579339 L124.246994,63.4423171 Z" id="Shape"></path>
                            <path d="M71.9997098,31.1717313 L71.9997098,24.8615157 C74.175742,25.0168672 74.9839031,26.0115056 75.7298125,26.0115056 C76.6624772,26.0115056 77.0976836,24.8303898 77.0976836,24.2398319 C77.0976836,22.7168872 74.1134903,22.0640776 71.9997098,22.0018258 L71.9997098,21.1625388 C71.9997098,20.7893062 71.5336554,20.4474774 71.067323,20.4474774 C70.538739,20.4474774 70.1657843,20.7895841 70.1657843,21.1625388 L70.1657843,22.0640776 C67.2127168,22.3747805 64.2596493,23.9291289 64.2596493,27.8457091 C64.2596493,31.8245409 67.3683461,32.9436829 70.1657843,33.9383214 L70.1657843,41.2426197 C66.9951135,40.9941685 66.1558265,38.8181362 65.1300622,38.8181362 C64.3530269,38.8181362 63.7002172,39.8439006 63.7002172,40.5900879 C63.7002172,42.1133105 66.311178,44.1959651 70.1657843,44.2582168 L70.1657843,45.2220073 C70.1657843,45.5952399 70.538739,45.9370688 71.067323,45.9370688 C71.5333774,45.9370688 71.9997098,45.594962 71.9997098,45.2220073 L71.9997098,44.1651171 C75.3568578,43.6990627 77.6571157,41.5852822 77.6571157,37.7618018 C77.6571157,33.5342408 74.7040482,32.1663697 71.9997098,31.1717313 Z M70.3525395,30.5811733 C68.7048134,29.9594895 67.3683461,29.3066799 67.3683461,27.5347282 C67.3683461,25.9184059 68.6117137,25.1413707 70.3525395,24.9237674 L70.3525395,30.5811733 Z M71.8135103,41.1809237 L71.8135103,34.621979 C73.336455,35.2747887 74.5486967,36.1452016 74.5489746,38.1036306 C74.5489746,39.8753044 73.4920844,40.8702208 71.8135103,41.1809237 Z" id="Shape"></path>
                        </g>
                    </g>
                </g>
            </g>
        </g>
    </g>
</svg>