<?xml version="1.0" encoding="UTF-8" standalone="no"?>
<svg width="142px" height="157px" viewBox="0 0 142 157" version="1.1" xmlns="http://www.w3.org/2000/svg" xmlns:xlink="http://www.w3.org/1999/xlink">
    <!-- Generator: Sketch 50.2 (55047) - http://www.bohemiancoding.com/sketch -->
    <title>ICON custom</title>
    <desc>Created with Sketch.</desc>
    <defs></defs>
    <g id="mockups-v1" stroke="none" stroke-width="1" fill="none" fill-rule="evenodd">
        <g id="home-v2" transform="translate(-1086.000000, -735.000000)" fill="#FFFFFF" fill-rule="nonzero">
            <g id="SECTION-services" transform="translate(80.000000, 645.000000)">
                <g id="ITEM-custom" transform="translate(874.000000, 0.000000)">
                    <g id="ITEM-content" transform="translate(-0.948598, 90.116822)">
                        <g id="ICON-custom" transform="translate(132.803738, 0.000000)">
                            <path d="M77.0074405,122.372212 C75.7766039,122.372212 74.7787438,123.369767 74.7787438,124.600909 L74.7787438,129.206699 C74.7787438,130.437536 75.7762986,131.435396 77.0074405,131.435396 C78.2382771,131.435396 79.2361372,130.437841 79.2361372,129.206699 L79.2361372,124.600909 C79.2361372,123.370072 78.2382771,122.372212 77.0074405,122.372212 Z" id="Shape"></path>
                            <path d="M48.4029321,104.542028 L33.5541144,104.542028 C31.8304546,104.542028 30.4283207,105.944162 30.4283207,107.667822 L30.4283207,126.424111 L30.4280153,126.424111 C30.4280153,128.14777 31.8304546,129.549904 33.553809,129.549904 L48.4029321,129.549904 C50.1265919,129.549904 51.5287258,128.14777 51.5287258,126.424111 L51.5287258,107.667822 C51.5287258,105.944162 50.1262866,104.542028 48.4029321,104.542028 Z M47.0716377,125.092816 L34.8854087,125.092816 L34.8854087,108.999116 L47.0716377,108.999116 L47.0716377,125.092816 Z" id="Shape"></path>
                            <path d="M108.735605,104.542028 L93.8861768,104.542028 C92.1628224,104.542028 90.7606885,105.944162 90.7606885,107.667822 L90.7606885,126.424111 C90.7606885,128.14777 92.1628224,129.549904 93.8861768,129.549904 L108.735605,129.549904 C110.45896,129.549904 111.861094,128.14777 111.861094,126.424111 L111.861094,107.667822 C111.861094,105.944162 110.45896,104.542028 108.735605,104.542028 Z M107.404006,125.092816 L95.2180819,125.092816 L95.2180819,108.999116 L107.404006,108.999116 L107.404006,125.092816 Z" id="Shape"></path>
                            <path d="M48.4029321,62.1332794 L33.5541144,62.1332794 C31.8304546,62.1332794 30.4283207,63.5354132 30.4283207,65.259073 L30.4283207,84.0153619 L30.4280153,84.0153619 C30.4280153,85.7390217 31.8304546,87.1411556 33.553809,87.1411556 L48.4029321,87.1411556 C50.1265919,87.1411556 51.5287258,85.7390217 51.5287258,84.0153619 L51.5287258,65.259073 C51.5287258,63.5354132 50.1262866,62.1332794 48.4029321,62.1332794 Z M47.0716377,82.6840675 L34.8854087,82.6840675 L34.8854087,66.5903674 L47.0716377,66.5903674 L47.0716377,82.6840675 Z" id="Shape"></path>
                            <path d="M78.5692687,62.1332794 L63.7201456,62.1332794 C61.9964858,62.1332794 60.5943519,63.5354132 60.5943519,65.259073 L60.5943519,84.0153619 C60.5943519,85.7390217 61.9967911,87.1411556 63.7201456,87.1411556 L78.5692687,87.1411556 C80.2929285,87.1411556 81.6950624,85.7390217 81.6950624,84.0153619 L81.6950624,65.259073 C81.6950624,63.5354132 80.2929285,62.1332794 78.5692687,62.1332794 Z M77.2379743,82.6840675 L65.0517453,82.6840675 L65.0517453,66.5903674 L77.2379743,66.5903674 L77.2379743,82.6840675 Z" id="Shape"></path>
                            <path d="M108.735605,62.1332794 L93.8861768,62.1332794 C92.1628224,62.1332794 90.7606885,63.5354132 90.7606885,65.259073 L90.7606885,84.0153619 C90.7606885,85.7390217 92.1628224,87.1411556 93.8861768,87.1411556 L108.735605,87.1411556 C110.45896,87.1411556 111.861094,85.7390217 111.861094,84.0153619 L111.861094,65.259073 C111.861094,63.5354132 110.45896,62.1332794 108.735605,62.1332794 Z M107.404006,82.6840675 L95.2180819,82.6840675 L95.2180819,66.5903674 L107.404006,66.5903674 L107.404006,82.6840675 Z" id="Shape"></path>
                            <path d="M48.4032374,23.1425374 L33.5541144,23.1425374 C31.8304546,23.1425374 30.4283207,24.5446713 30.4283207,26.2683311 L30.4283207,45.02462 C30.4280153,46.7482798 31.8304546,48.1504136 33.5541144,48.1504136 L48.4032374,48.1504136 C50.1268972,48.1504136 51.5290311,46.7482798 51.5290311,45.02462 L51.5290311,26.2683311 C51.5290311,24.5446713 50.1265919,23.1425374 48.4032374,23.1425374 Z M47.0716377,43.6933256 L34.8854087,43.6933256 L34.8854087,27.5996255 L47.0716377,27.5996255 L47.0716377,43.6933256 Z" id="Shape"></path>
                            <path d="M78.5692687,23.1425374 L63.7201456,23.1425374 C61.9964858,23.1425374 60.5943519,24.5446713 60.5943519,26.2683311 L60.5943519,45.02462 C60.5943519,46.7482798 61.9967911,48.1504136 63.7201456,48.1504136 L78.5692687,48.1504136 C80.2929285,48.1504136 81.6950624,46.7482798 81.6950624,45.02462 L81.6950624,26.2683311 C81.6950624,24.5446713 80.2929285,23.1425374 78.5692687,23.1425374 Z M77.2379743,43.6933256 L65.0517453,43.6933256 L65.0517453,27.5996255 L77.2379743,27.5996255 L77.2379743,43.6933256 Z" id="Shape"></path>
                            <path d="M108.735911,23.1425374 L93.8864822,23.1425374 C92.1631277,23.1425374 90.7609938,24.5446713 90.7609938,26.2683311 L90.7609938,45.02462 C90.7606885,46.7482798 92.1628224,48.1504136 93.8864822,48.1504136 L108.735911,48.1504136 C110.459265,48.1504136 111.861399,46.7482798 111.861399,45.02462 L111.861399,26.2683311 C111.861399,24.5446713 110.459265,23.1425374 108.735911,23.1425374 Z M107.404006,43.6933256 L95.2180819,43.6933256 L95.2180819,27.5996255 L107.404006,27.5996255 L107.404006,43.6933256 Z" id="Shape"></path>
                            <path d="M135.965155,144.152616 L132.503485,144.152616 C132.06715,138.398737 128.032656,133.637222 122.648547,132.117226 L122.573739,13.4359969 L125.276938,13.4359969 C126.874186,13.4359969 128.173419,12.1367635 128.173419,10.5398209 L128.173419,2.89617595 C128.173419,1.29923338 126.874186,0 125.276938,0 L109.765526,0 C108.53469,0 107.53683,0.997554751 107.53683,2.2286967 C107.53683,3.45983865 108.534384,4.45739341 109.765526,4.45739341 L123.716026,4.45739341 L123.716026,8.97890879 L18.5739992,8.97890879 L18.5739992,4.45739341 L95.8272407,4.45739341 C97.0580773,4.45739341 98.0559374,3.45983865 98.0559374,2.2286967 C98.0559374,0.997554751 97.0580773,0 95.8272407,0 L17.0127818,0 C15.4158392,0 14.1166058,1.29923338 14.1166058,2.89617595 L14.1166058,10.5401262 C14.1166058,12.1370688 15.4158392,13.4363022 17.0127818,13.4363022 L19.6298745,13.4363022 L19.6772026,88.38787 C19.6778133,89.6184013 20.6756734,90.61504 21.9058993,90.61504 C21.9062046,90.61504 21.9068153,90.61504 21.907426,90.61504 C23.1382626,90.614124 24.1352067,89.6159585 24.134596,88.3848166 L24.0872679,13.4359969 L118.116345,13.4359969 L118.190849,131.62654 C118.183521,131.626846 118.176498,131.628067 118.169169,131.628372 C118.091612,131.632647 118.014666,131.641807 117.937414,131.647609 C117.753903,131.661349 117.570392,131.67509 117.388713,131.695853 C117.289477,131.707151 117.191767,131.723639 117.093142,131.737074 C116.934669,131.758754 116.77589,131.779822 116.618944,131.807303 C116.51238,131.825624 116.407036,131.84883 116.301082,131.869593 C116.154213,131.898601 116.007037,131.927303 115.861694,131.961196 C115.752076,131.986539 115.64429,132.015852 115.535588,132.043944 C115.395436,132.08028 115.255589,132.11631 115.117269,132.156921 C115.007956,132.188982 114.899865,132.224401 114.791468,132.25921 C114.656201,132.302569 114.52124,132.346538 114.387499,132.394172 C114.279408,132.432645 114.172538,132.473866 114.065363,132.515088 C113.934371,132.565775 113.803684,132.617072 113.674524,132.671728 C113.56796,132.716614 113.462616,132.763331 113.357578,132.810965 C113.23025,132.868369 113.104144,132.927606 112.978953,132.98898 C112.875442,133.039666 112.772542,133.09188 112.670252,133.145315 C112.546283,133.210048 112.42384,133.276918 112.302009,133.34562 C112.201856,133.402108 112.102314,133.459207 112.003689,133.518139 C111.883078,133.590199 111.7643,133.664703 111.645827,133.740733 C111.549644,133.802413 111.453766,133.864092 111.35911,133.927909 C111.241553,134.007603 111.126134,134.090351 111.011019,134.173709 C110.919722,134.239969 110.828119,134.305618 110.738348,134.374014 C110.623539,134.461648 110.511173,134.552945 110.399113,134.644548 C110.313006,134.714777 110.226289,134.783784 110.142014,134.85615 C110.029037,134.952944 109.919419,135.053707 109.809496,135.15447 C109.730107,135.227142 109.649801,135.297981 109.572244,135.37279 C109.458962,135.481492 109.349955,135.59508 109.240337,135.708057 C109.170413,135.780118 109.098658,135.850041 109.030261,135.923934 C108.911483,136.051873 108.79759,136.184697 108.683392,136.317826 C108.62843,136.381948 108.571026,136.443322 108.51698,136.508665 C108.351179,136.70897 108.189958,136.914466 108.034538,137.125458 C107.779882,137.178282 107.528891,137.241793 107.280647,137.312022 C107.198815,137.335228 107.119121,137.362709 107.0379,137.387747 C106.872404,137.439045 106.707824,137.491564 106.545687,137.550495 C106.452558,137.584083 106.36126,137.620724 106.269352,137.657059 C106.121566,137.715075 105.975002,137.775532 105.830269,137.83996 C105.73714,137.881181 105.645231,137.923624 105.553629,137.967593 C105.411033,138.035684 105.270881,138.10744 105.13195,138.181638 C105.045233,138.227745 104.958516,138.273241 104.87302,138.321791 C104.725234,138.40576 104.580807,138.49492 104.437601,138.585301 C104.366761,138.630187 104.29409,138.672629 104.224166,138.719042 C104.014701,138.857973 103.809205,139.002705 103.610122,139.155682 C103.597298,139.165453 103.585389,139.176445 103.57287,139.186216 C103.386,139.330948 103.204321,139.481788 103.027528,139.637818 C102.963711,139.694306 102.902948,139.754153 102.840353,139.811863 C102.7173,139.925756 102.595468,140.040565 102.477911,140.159954 C102.409209,140.229572 102.34295,140.301328 102.276079,140.372778 C102.168904,140.487281 102.063866,140.603617 101.961576,140.722701 C101.896538,140.798731 101.832416,140.875067 101.769211,140.952929 C101.669363,141.075677 101.57318,141.201173 101.47883,141.328195 C101.42112,141.405752 101.363105,141.482699 101.307532,141.561783 C101.208296,141.703156 101.11425,141.847889 101.021426,141.994148 C100.978067,142.06285 100.932266,142.12972 100.890129,142.199033 C100.759137,142.416132 100.633946,142.637505 100.517916,142.864375 C100.509672,142.880558 100.502649,142.897657 100.494405,142.91384 C100.387535,143.125137 100.287688,143.340709 100.194253,143.55964 C100.160665,143.638724 100.131352,143.71964 100.099596,143.799334 C100.052574,143.916891 100.002803,144.032921 99.9600548,144.152616 L85.5142894,144.152616 L85.5142894,108.331331 C85.5142894,106.241871 83.8144464,104.542028 81.724986,104.542028 L60.5647337,104.542028 C58.4752733,104.542028 56.7754302,106.241871 56.7754302,108.331331 L56.7754302,144.152921 L42.3302756,144.152921 C42.2872222,144.033227 42.2374514,143.916891 42.1904286,143.799029 C42.1586729,143.719334 42.12936,143.638419 42.0957723,143.559945 C42.0035588,143.343457 41.9046278,143.130328 41.7989792,142.921168 C41.7895136,142.902543 41.7815746,142.883001 41.772109,142.864069 C41.6563841,142.63781 41.5314989,142.417048 41.4008122,142.20056 C41.3580643,142.129415 41.3113468,142.061323 41.2667668,141.991094 C41.1748586,141.846362 41.0817291,141.703156 40.9837141,141.563309 C40.927531,141.483004 40.8685998,141.405447 40.8102794,141.326669 C40.7165391,141.200867 40.6212722,141.076593 40.5223412,140.954761 C40.4585245,140.876288 40.3937919,140.798731 40.3278378,140.72209 C40.2261587,140.603617 40.1217315,140.488197 40.0151669,140.374305 C39.9479915,140.302244 39.8811214,140.230183 39.8118086,140.159954 C39.694557,140.041176 39.5736412,139.926977 39.4511988,139.813695 C39.3879929,139.755375 39.326619,139.694917 39.2621916,139.638123 C39.0850929,139.481788 38.9034139,139.330948 38.7165442,139.186521 C38.7040251,139.17675 38.6924221,139.166063 38.6795977,139.156292 C38.4802089,139.003316 38.2747132,138.858583 38.0649427,138.719347 C37.9956299,138.67324 37.9238744,138.631408 37.8536456,138.586828 C37.7095238,138.495836 37.564486,138.406371 37.4160894,138.322096 C37.3312041,138.273852 37.2450975,138.228661 37.1589908,138.18286 C37.0191438,138.108356 36.8783808,138.036295 36.7351751,137.967593 C36.6441829,137.924234 36.5528855,137.882097 36.460672,137.840876 C36.3150235,137.776143 36.1675429,137.71538 36.018841,137.656754 C35.9278489,137.621029 35.8371621,137.584693 35.7449486,137.551411 C35.5818955,137.49248 35.4163998,137.43935 35.249988,137.387747 C35.1696828,137.363014 35.0905991,137.335534 35.0093779,137.312633 C34.7611342,137.242404 34.5101425,137.178587 34.2551813,137.125763 C34.1000672,136.915077 33.9394569,136.710497 33.7739611,136.510497 C33.7196101,136.444849 33.6622057,136.38317 33.6069387,136.318742 C33.4936565,136.186834 33.3803743,136.054926 33.262512,135.927904 C33.1931992,135.853095 33.1205277,135.78195 33.0496881,135.708973 C32.9412915,135.597523 32.8335055,135.485462 32.72175,135.377981 C32.6435823,135.302867 32.5629718,135.231417 32.4832773,135.158134 C32.37427,135.057982 32.2652626,134.95783 32.1532018,134.861647 C32.0686219,134.788975 31.9819046,134.719357 31.8954926,134.649128 C31.7840425,134.558136 31.6725924,134.467755 31.5586995,134.380426 C31.4686234,134.311724 31.3770206,134.245465 31.2857231,134.1789 C31.1712196,134.095847 31.0561054,134.01371 30.9391591,133.934321 C30.8448082,133.870199 30.7492359,133.80852 30.6533583,133.74684 C30.5351906,133.671115 30.4164123,133.596612 30.2961073,133.524551 C30.1977869,133.465925 30.0991612,133.408521 29.9993141,133.352337 C29.8774824,133.283635 29.7547346,133.217071 29.6307654,133.152033 C29.5293916,133.098903 29.4277125,133.046689 29.324812,132.996002 C29.1990108,132.934018 29.0719882,132.875087 28.9443549,132.817072 C28.8405384,132.770049 28.7364165,132.723026 28.6313786,132.678446 C28.5009973,132.623179 28.3693945,132.571576 28.2371811,132.520584 C28.1318379,132.479973 28.0268,132.438752 27.9205407,132.400889 C27.7849685,132.35234 27.6475643,132.308065 27.51016,132.263791 C27.4045115,132.229898 27.2994735,132.194478 27.1929089,132.163027 C27.0506192,132.12089 26.9064974,132.084249 26.7623757,132.046692 C26.6582538,132.019822 26.5550479,131.990814 26.4503154,131.966387 C26.2964226,131.930356 26.1403925,131.900127 25.984973,131.869593 C25.8881794,131.850356 25.7923018,131.828677 25.6952028,131.811578 C25.5107757,131.779212 25.3242113,131.753868 25.1376469,131.729135 C25.0674181,131.719975 24.9981053,131.707151 24.9275711,131.698906 C24.6738313,131.669288 24.4188701,131.646388 24.1620768,131.630815 L24.1437563,102.51272 C24.1431456,101.282189 23.1452855,100.28555 21.9150596,100.28555 C21.9147542,100.28555 21.9141435,100.28555 21.9135329,100.28555 C20.6826962,100.286466 19.6857522,101.284632 19.6863629,102.515774 L19.7049888,132.099822 C14.2888191,133.59997 10.2240965,138.376752 9.78623501,144.153532 L6.3245643,144.153532 C2.96579409,144.153532 0.233281858,146.886044 0.233281858,150.244814 C0.233281858,153.60389 2.96579409,156.336097 6.3245643,156.336097 L135.965461,156.336097 C139.324536,156.336097 142.056743,153.603584 142.056743,150.244814 C142.056743,146.885128 139.324231,144.152616 135.965155,144.152616 Z M105.116378,143.89399 C105.120347,143.8888 105.123706,143.883609 105.127675,143.878723 C105.22111,143.757808 105.320347,143.641167 105.42172,143.527274 C105.447369,143.498266 105.473629,143.469869 105.499888,143.441167 C105.599125,143.333686 105.701109,143.228649 105.807063,143.128191 C105.812559,143.123 105.81775,143.117504 105.823246,143.112313 C105.93378,143.008496 106.0492,142.909871 106.166757,142.813993 C106.197596,142.788955 106.228741,142.763917 106.259886,142.739489 C106.374695,142.649108 106.491947,142.561475 106.612557,142.479032 C106.618664,142.474757 106.624466,142.470177 106.630572,142.466208 C106.756068,142.381017 106.886144,142.301933 107.017747,142.225598 C107.052251,142.205445 107.087365,142.185903 107.12248,142.166361 C107.251945,142.0943 107.383548,142.025293 107.518509,141.962392 C107.5237,141.959949 107.528891,141.956896 107.534082,141.954453 C107.673013,141.890026 107.815302,141.832011 107.959119,141.777354 C107.996676,141.763003 108.034538,141.748958 108.072706,141.735523 C108.216217,141.684225 108.36095,141.635981 108.508736,141.594454 C108.511789,141.593538 108.514842,141.592317 108.518201,141.591706 C108.66843,141.549874 108.821712,141.51537 108.97591,141.484531 C109.014994,141.476592 109.054383,141.469264 109.093772,141.461935 C109.249802,141.433539 109.407359,141.408806 109.567054,141.392012 C110.248579,141.320256 110.859569,140.938883 111.223233,140.357816 C112.905671,137.668357 115.799404,136.062865 118.963977,136.062865 C119.146877,136.062865 119.335273,136.069583 119.526723,136.082102 C119.536494,136.082712 119.546265,136.083628 119.556036,136.084239 C119.746875,136.097369 119.940768,136.115995 120.137409,136.141338 C120.145958,136.142559 120.154508,136.142254 120.162752,136.14317 C124.291597,136.687596 127.559986,140.001786 128.031129,144.153226 L104.932561,144.153226 C104.993019,144.065593 105.052256,143.977654 105.116378,143.89399 Z M81.0572014,108.999116 L81.0572014,144.152616 L61.2325183,144.152616 L61.2325183,108.999116 L81.0572014,108.999116 Z M22.1953642,136.134621 C22.198723,136.134315 22.2017764,136.134315 22.2051352,136.13401 C22.3950584,136.110804 22.5779587,136.09401 22.7578055,136.082407 C22.7687979,136.081796 22.7794849,136.08088 22.7901719,136.079964 C22.9718508,136.068667 23.1498656,136.06256 23.3260484,136.06256 C26.4903153,136.06256 29.3843538,137.668052 31.0670977,140.357511 C31.3055704,140.738884 31.651829,141.031708 32.0536601,141.210028 C32.2640413,141.303463 32.4887735,141.366974 32.7232767,141.391707 C32.7238874,141.391707 32.7241928,141.391707 32.7248035,141.392012 C32.883887,141.408806 33.0408332,141.433539 33.1962527,141.46163 C33.2359472,141.468653 33.2753364,141.476287 33.3147256,141.484225 C33.4689237,141.515065 33.6222058,141.549569 33.7724344,141.591401 C33.7757932,141.592317 33.7788466,141.593538 33.7822054,141.594454 C33.9299913,141.635675 34.0750291,141.68392 34.2182348,141.735523 C34.255792,141.748958 34.2933491,141.762698 34.330601,141.777049 C34.4747227,141.831706 34.6176231,141.889721 34.7565541,141.954453 C34.7608289,141.956285 34.7647983,141.958728 34.7690731,141.960865 C34.905256,142.024377 35.0377748,142.093995 35.1684615,142.166666 C35.2029652,142.185598 35.2371636,142.20514 35.2710566,142.224682 C35.40327,142.301323 35.5336514,142.380712 35.6600633,142.466208 C35.6649488,142.469261 35.6692236,142.472925 35.674109,142.476284 C35.7965515,142.559643 35.9150245,142.648497 36.0313601,142.739795 C36.0618943,142.763917 36.0924286,142.788039 36.1223522,142.812772 C36.2405198,142.908955 36.3562447,143.007886 36.4670842,143.112313 C36.4719696,143.116893 36.4762444,143.121473 36.4811299,143.126053 C36.5879999,143.226817 36.6902897,143.332465 36.7898314,143.440556 C36.8163963,143.469259 36.8426557,143.497961 36.8686099,143.526968 C36.9699837,143.640556 37.0686094,143.756586 37.1617389,143.877197 C37.1666244,143.883609 37.1712045,143.890326 37.17609,143.896433 C37.2396013,143.979181 37.2979218,144.066204 37.3574636,144.152005 L14.2582849,144.152005 C14.7318715,139.97858 18.0338479,136.65126 22.1953642,136.134621 Z M135.965155,151.878398 L6.3245643,151.878398 C5.42349785,151.878398 4.69036992,151.14527 4.69036992,150.244204 C4.69036992,149.343137 5.42349785,148.610009 6.3245643,148.610009 L135.965155,148.610009 C136.866222,148.610009 137.59935,149.343137 137.59935,150.244204 C137.59935,151.14527 136.866222,151.878398 135.965155,151.878398 Z" id="Shape"></path>
                        </g>
                    </g>
                </g>
            </g>
        </g>
    </g>
</svg>