<?xml version="1.0" encoding="UTF-8" standalone="no"?>
<svg width="194px" height="89px" viewBox="0 0 194 89" version="1.1" xmlns="http://www.w3.org/2000/svg" xmlns:xlink="http://www.w3.org/1999/xlink">
    <!-- Generator: Sketch 50.2 (55047) - http://www.bohemiancoding.com/sketch -->
    <title>ITEM logo</title>
    <desc>Created with Sketch.</desc>
    <defs></defs>
    <g id="mockups-v1" stroke="none" stroke-width="1" fill="none" fill-rule="evenodd">
        <g id="home-v3" transform="translate(-82.000000, -34.000000)">
            <g id="ITEM-logo" transform="translate(82.000000, 34.000000)">
                <polyline id="Fill-27" fill="#333333" points="11.2048251 10.0917104 1.70359563 45.5523661 12.4758962 45.5523661 21.9776557 10.0917104 11.2048251 10.0917104"></polyline>
                <polyline id="Fill-28" fill="#C4A374" points="11.6945956 0.35831694 24.5887049 0.35831694 21.9877268 10.0614973 11.6945956 0.35831694"></polyline>
                <path d="M58.8381858,12.4637049 C57.6513934,10.8703607 56.0999235,10.1134426 53.7793443,10.0917104 L44.9221311,10.0917104 L34.9014481,18.2227486 L37.0794426,10.0917104 L26.3087322,10.0917104 L16.8069727,45.5523661 L27.5803333,45.5523661 L34.463623,19.8579672 L48.3855082,19.8579672 L41.5000984,45.5523661 L52.3651585,45.5523661 L59.6883934,18.2269891 C59.897235,17.4419781 59.9979454,16.7110328 59.9979454,16.0325628 C59.994235,14.6851639 59.6205464,13.5375956 58.8381858,12.4637049" id="Fill-29" fill="#333333"></path>
                <polyline id="Fill-30" fill="#C4A374" points="58.0123607 24.6226284 63.7708743 32.4833388 66.7699235 32.4833388 68.8593989 24.6226284 58.0123607 24.6226284"></polyline>
                <path d="M121.847372,35.0996885 L127.45429,45.5603169 L140.918208,45.5603169 L130.804235,27.2389781 L149.199251,10.1001913 L134.758973,10.1001913 L126.092579,18.225929 L121.959213,10.1001913 L108.304475,10.1001913 L116.990481,26.6294153 L107.86347,35.7861093 L76.7715246,35.7861093 L81.0384645,19.8584973 L94.3332951,19.8584973 L81.9581093,32.475388 L94.5257049,32.475388 C95.9637432,30.9843443 103.69512,23.0266339 105.961634,20.5777814 C107.291541,19.157765 107.978492,17.0009727 107.973721,15.2613333 C107.986973,14.123306 107.593672,13.1718579 107.357798,12.8994098 C105.92347,10.7330765 103.386628,10.059377 101.180011,10.0917104 L81.4285847,10.0917104 C79.0788525,10.097541 76.8621639,10.9095847 74.6640273,12.6380929 C72.469071,14.3734918 71.1073607,16.3850492 70.4675847,18.7570437 L68.8869617,24.6130874 L73.9516339,32.4743279 L66.7805246,32.4743279 L65.4670492,37.4192077 C65.2502568,38.2254208 65.1474262,38.9727978 65.1474262,39.6687596 C65.1511366,41.0172186 65.5221749,42.1531257 66.2886339,43.2068743 C67.4584645,44.7774262 69.0162951,45.532224 71.3782186,45.5523661 L98.1268962,45.5523661 L96.612,47.0720328 L96.612,50.1023552 L134.284574,15.9938689 L104.255388,46.7391585 L104.255388,50.7999071 L121.847372,35.0996885" id="Fill-31" fill="#333333"></path>
                <path d="M3.81374317,55.261377 L4.33955738,53.4130765 L2.6248306,53.4130765 L2.09901639,55.261377 L3.81374317,55.261377 Z M5.18128415,55.4336448 C5.09488525,55.735776 4.76625137,55.8863115 4.19485246,55.8863115 L1.92144809,55.8863115 L1.42160656,57.6482131 L0.016431694,57.6482131 L1.3977541,52.7881421 L5.07580328,52.7881421 C5.64720219,52.7881421 5.89102732,52.9370874 5.80674863,53.2360383 L5.18128415,55.4336448 Z" id="Fill-32" fill="#333333"></path>
                <polyline id="Fill-33" fill="#333333" points="12.6762568 57.6482131 8.98760656 57.6482131 10.3683989 52.7881421 11.7725137 52.7881421 10.5745902 56.9978361 12.8596557 56.9978361 12.6762568 57.6482131"></polyline>
                <path d="M20.2772404,56.1004536 L20.2157541,53.9086776 L18.9017486,56.1004536 L20.2772404,56.1004536 Z M21.708388,57.6482131 L20.3164645,57.6482131 L20.2952623,56.7248579 L18.5386612,56.7248579 L17.9948251,57.6482131 L16.6103224,57.6482131 L16.6129727,57.6344317 L19.8102623,52.7807213 L21.2854044,52.7807213 L21.708388,57.6482131 Z" id="Fill-34" fill="#333333"></path>
                <path d="M30.5587104,57.2029672 C30.4744317,57.4982077 30.1489781,57.6482131 29.5812896,57.6482131 L26.7560984,57.6482131 C26.1915902,57.6482131 25.9514754,57.4982077 26.0362842,57.2029672 L26.364918,56.0437377 L27.7679727,56.0437377 L27.4865137,57.0354699 L29.2028306,57.0354699 L29.4731585,56.0829617 L27.0523989,54.7026995 C26.8769508,54.6030492 26.8117541,54.4731858 26.8568087,54.3152295 L27.1642404,53.2360383 C27.2485191,52.9370874 27.5729126,52.7881421 28.1368907,52.7881421 L30.962612,52.7881421 C31.5303005,52.7881421 31.7730656,52.9354973 31.6887869,53.2286175 L31.379235,54.3152295 L29.9761803,54.3152295 L30.2364372,53.4003552 L28.5217104,53.4003552 L28.2704645,54.2791858 L30.6938743,55.6509672 C30.8698525,55.7490273 30.9350492,55.8804809 30.8884044,56.0437377 L30.5587104,57.2029672" id="Fill-35" fill="#333333"></path>
                <polyline id="Fill-36" fill="#333333" points="40.2666612 53.4305683 38.7189016 53.4305683 37.5209781 57.6482131 36.123224 57.6482131 37.3211475 53.4305683 35.773388 53.4305683 35.9567869 52.7881421 40.4495301 52.7881421 40.2666612 53.4305683"></polyline>
                <polyline id="Fill-37" fill="#333333" points="47.1154973 57.6482131 43.2211858 57.6482131 44.6019781 52.7881421 48.4597158 52.7881421 48.276847 53.4305683 45.8237541 53.4305683 45.4209126 54.8495246 47.5321202 54.8495246 47.3519016 55.4797596 45.2417541 55.4797596 44.8081694 57.0041967 47.2983661 57.0041967 47.1154973 57.6482131"></polyline>
                <path d="M56.3198962,57.6482131 L54.8564153,57.6482131 L53.9494918,55.3917705 L54.0740546,54.9518251 L55.455377,54.9518251 L55.8926721,53.4130765 L54.1228197,53.4130765 L52.9201257,57.6482131 L51.5149508,57.6482131 L52.8962732,52.7881421 L56.6220273,52.7881421 C57.1844153,52.7881421 57.424,52.9370874 57.3402514,53.2360383 L56.8382896,55.0016503 C56.7783934,55.2067814 56.6071858,55.338765 56.3236066,55.3986612 C56.1704208,55.4299344 55.861929,55.444776 55.3976011,55.444776 L56.3198962,57.6482131" id="Fill-38" fill="#333333"></path>
                <polyline id="Fill-39" fill="#333333" points="62.0455464 57.6482131 60.6414317 57.6482131 62.0227541 52.7881421 63.4268689 52.7881421 62.0455464 57.6482131"></polyline>
                <path d="M71.3946503,57.6482131 L70.1649235,57.6482131 L68.7846612,54.5892678 C68.8026831,54.7376831 68.7973825,54.8548251 68.7745902,54.9401639 L68.0044208,57.6482131 L66.6379399,57.6482131 L68.0187322,52.7881421 L69.247929,52.7881421 L70.6456831,55.7834809 C70.6271311,55.6350656 70.6308415,55.5179235 70.6557541,55.4336448 L71.4073716,52.7881421 L72.7759727,52.7881421 L71.3946503,57.6482131" id="Fill-40" fill="#333333"></path>
                <path d="M80.7310328,57.2029672 C80.6467541,57.4982077 80.3186503,57.6482131 79.7461913,57.6482131 L76.7943169,57.6482131 C76.2393497,57.6482131 76.0034754,57.4982077 76.0877541,57.2029672 L77.2157104,53.2360383 C77.2999891,52.9370874 77.6259727,52.7881421 78.1947213,52.7881421 L81.1285738,52.7881421 C81.6999727,52.7881421 81.9437978,52.9370874 81.8595191,53.2360383 L81.5642787,54.2707049 L80.1538033,54.2707049 L80.3976284,53.4130765 L78.5684098,53.4130765 L77.5427541,57.0238087 L79.3719727,57.0238087 L79.7594426,55.6626284 L78.715235,55.6626284 L78.890153,55.0445847 L81.3448361,55.0445847 L80.7310328,57.2029672" id="Fill-41" fill="#333333"></path>
                <path d="M94.4419563,57.0354699 L94.8999235,55.4272842 L93.7608361,55.4272842 L93.0526831,55.6626284 L92.6609727,57.0354699 L94.4419563,57.0354699 Z M96.9268525,55.4272842 L96.2674645,55.4272842 L95.6372295,57.6482131 L91.9613005,57.6482131 C91.3962623,57.6482131 91.1550874,57.4997978 91.237776,57.2087978 L91.6596995,55.7288852 C91.7047541,55.570929 91.8404481,55.4463661 92.0657213,55.3557268 C92.3238579,55.2714481 92.5846448,55.193 92.8433115,55.1092514 C92.6371202,55.0323934 92.4319891,54.9518251 92.2268579,54.8701967 C92.0508798,54.7816776 91.9867432,54.6624153 92.0291475,54.5124098 L92.3943552,53.2286175 C92.4775738,52.9354973 92.8035574,52.7881421 93.371776,52.7881421 L96.2197596,52.7881421 C96.7842678,52.7881421 97.0238525,52.9354973 96.9395738,53.2286175 L96.6549344,54.2383716 L95.2805027,54.2383716 L95.5190273,53.4003552 L93.7380437,53.4003552 L93.4025191,54.5754863 L93.9744481,54.8071202 L97.1044208,54.8071202 L96.9268525,55.4272842 Z" id="Fill-42" fill="#333333"></path>
                <path d="M111.16677,57.2029672 C111.082492,57.4982077 110.756508,57.6482131 110.18935,57.6482131 L107.363098,57.6482131 C106.79912,57.6482131 106.559005,57.4982077 106.644344,57.2029672 L106.971918,56.0437377 L108.376033,56.0437377 L108.094044,57.0354699 L109.811421,57.0354699 L110.081219,56.0829617 L107.659929,54.7026995 C107.485011,54.6030492 107.419814,54.4731858 107.464869,54.3152295 L107.77177,53.2360383 C107.856049,52.9370874 108.180973,52.7881421 108.746011,52.7881421 L111.569612,52.7881421 C112.137301,52.7881421 112.380066,52.9354973 112.295787,53.2286175 L111.987295,54.3152295 L110.58318,54.3152295 L110.844497,53.4003552 L109.12871,53.4003552 L108.877995,54.2791858 L111.301404,55.6509672 C111.477383,55.7490273 111.540989,55.8804809 111.496464,56.0437377 L111.16677,57.2029672" id="Fill-43" fill="#333333"></path>
                <polyline id="Fill-44" fill="#333333" points="120.875781 53.4305683 119.326962 53.4305683 118.130098 57.6482131 116.731284 57.6482131 117.930268 53.4305683 116.381448 53.4305683 116.564847 52.7881421 121.05865 52.7881421 120.875781 53.4305683"></polyline>
                <path d="M128.653273,57.2029672 C128.570585,57.4982077 128.239831,57.6482131 127.664191,57.6482131 L124.683694,57.6482131 C124.114945,57.6482131 123.87218,57.4982077 123.955399,57.2029672 L125.211098,52.7881421 L126.614153,52.7881421 L125.411989,57.0238087 L127.300574,57.0238087 L128.503798,52.7881421 L129.907913,52.7881421 L128.653273,57.2029672" id="Fill-45" fill="#333333"></path>
                <path d="M137.84018,57.2029672 C137.756962,57.4982077 137.428858,57.6482131 136.856399,57.6482131 L133.929437,57.6482131 C133.37235,57.6482131 133.136475,57.4982077 133.221284,57.2029672 L134.34977,53.2360383 C134.435109,52.9370874 134.754732,52.7881421 135.309699,52.7881421 L138.237721,52.7881421 C138.80912,52.7881421 139.053475,52.9370874 138.967607,53.2360383 L138.645863,54.3719454 L137.247579,54.3719454 L137.520557,53.4130765 L135.70353,53.4130765 L134.675754,57.0238087 L136.493842,57.0238087 L136.783251,56.0013333 L138.181536,56.0013333 L137.84018,57.2029672" id="Fill-46" fill="#333333"></path>
                <path d="M147.004295,57.2029672 C146.917896,57.4982077 146.590322,57.6482131 146.019454,57.6482131 L143.090902,57.6482131 C142.535934,57.6482131 142.29847,57.4982077 142.384339,57.2029672 L143.511765,53.2360383 C143.595514,52.9370874 143.916727,52.7881421 144.473814,52.7881421 L147.399716,52.7881421 C147.972175,52.7881421 148.21494,52.9370874 148.130661,53.2360383 L147.807328,54.3719454 L146.409574,54.3719454 L146.682022,53.4130765 L144.864464,53.4130765 L143.837749,57.0238087 L145.654776,57.0238087 L145.947896,56.0013333 L147.34459,56.0013333 L147.004295,57.2029672" id="Fill-47" fill="#333333"></path>
                <path d="M154.927022,57.0238087 L155.954798,53.4130765 L154.028049,53.4130765 L153.001333,57.0238087 L154.927022,57.0238087 Z M156.279721,57.2029672 C156.193852,57.4982077 155.868929,57.6482131 155.302831,57.6482131 L152.253956,57.6482131 C151.698989,57.6482131 151.462585,57.4982077 151.546863,57.2029672 L152.67588,53.2360383 C152.758568,52.9370874 153.079781,52.7881421 153.636869,52.7881421 L156.683093,52.7881421 C157.249721,52.7881421 157.491426,52.9370874 157.406617,53.2360383 L156.279721,57.2029672 Z" id="Fill-48" fill="#333333"></path>
                <polyline id="Fill-49" fill="#333333" points="168.120082 57.6482131 166.715967 57.6482131 168.095169 52.7881421 169.500344 52.7881421 168.120082 57.6482131"></polyline>
                <path d="M177.470246,57.6482131 L176.239459,57.6482131 L174.858137,54.5892678 C174.876158,54.7376831 174.871918,54.8548251 174.848596,54.9401639 L174.079486,57.6482131 L172.711415,57.6482131 L174.094328,52.7881421 L175.324055,52.7881421 L176.720749,55.7834809 C176.702727,55.6350656 176.705377,55.5179235 176.73082,55.4336448 L177.482967,52.7881421 L178.849978,52.7881421 L177.470246,57.6482131" id="Fill-50" fill="#333333"></path>
                <path d="M185.306044,57.2029672 C185.222825,57.4982077 184.896842,57.6482131 184.323322,57.6482131 L181.396361,57.6482131 C180.840333,57.6482131 180.604989,57.4982077 180.687678,57.2029672 L181.815634,53.2360383 C181.899913,52.9370874 182.220596,52.7881421 182.777153,52.7881421 L185.704645,52.7881421 C186.276044,52.7881421 186.520399,52.9370874 186.43612,53.2360383 L186.113847,54.3719454 L184.714503,54.3719454 L184.987481,53.4130765 L183.170454,53.4130765 L182.144798,57.0238087 L183.959705,57.0238087 L184.250175,56.0013333 L185.649519,56.0013333 L185.306044,57.2029672" id="Fill-51" fill="#333333"></path>
                <polyline id="Fill-52" fill="#C4A374" points="188.018863 57.6482131 186.667224 57.6482131 186.882426 56.8965956 188.229295 56.8965956 188.018863 57.6482131"></polyline>
                <polyline id="Fill-53" fill="#FFFFFF" points="89.5156284 61.8292842 62.7987541 89.1832842 89.5156284 64.446694 89.5156284 61.8292842"></polyline>
                <polyline id="Fill-54" fill="#FFFFFF" points="83.3648743 60.3583825 65.6154645 78.1634481 83.3648743 62.0927213 83.3648743 60.3583825"></polyline>
                <path d="M160.673344,25.3859071 C160.206896,25.3859071 159.708645,25.8534153 159.557049,26.4295847 C159.407574,27.005224 159.66677,27.4732623 160.132158,27.4732623 C160.599137,27.4732623 161.100038,27.005224 161.248454,26.4295847 C161.398459,25.8534153 161.141383,25.3859071 160.673344,25.3859071" id="Fill-55" fill="#C4A374"></path>
                <path d="M161.077776,29.1572459 C160.92671,29.7344754 161.185377,30.2014536 161.651295,30.2014536 C162.117743,30.2014536 162.618645,29.7344754 162.76759,29.1572459 C162.917066,28.5821366 162.660519,28.1140984 162.193541,28.1140984 C161.725503,28.1140984 161.226191,28.5821366 161.077776,29.1572459" id="Fill-56" fill="#C4A374"></path>
                <path d="M164.268705,31.8859672 C164.41818,31.3103279 164.160574,30.8422896 163.694656,30.8422896 C163.226617,30.8422896 162.727306,31.3103279 162.578361,31.8859672 C162.427295,32.4631967 162.686492,32.9301749 163.15135,32.9301749 C163.618858,32.9301749 164.11976,32.4631967 164.268705,31.8859672" id="Fill-57" fill="#C4A374"></path>
                <path d="M164.60688,35.6588962 C165.072268,35.6588962 165.573169,35.191918 165.721585,34.6157486 C165.87053,34.0395792 165.614514,33.572071 165.147005,33.572071 C164.681087,33.572071 164.180716,34.0395792 164.03177,34.6157486 C163.882295,35.191918 164.138842,35.6588962 164.60688,35.6588962" id="Fill-58" fill="#C4A374"></path>
                <path d="M167.260863,37.345 C167.410339,36.7688306 167.152732,36.3007923 166.685754,36.3007923 C166.218776,36.3007923 165.720525,36.7688306 165.568399,37.345 C165.421044,37.9206393 165.67865,38.3881475 166.144568,38.3881475 C166.611546,38.3881475 167.109798,37.9206393 167.260863,37.345" id="Fill-59" fill="#C4A374"></path>
                <path d="M167.61653,41.1168689 C168.083508,41.1168689 168.58335,40.6514809 168.733885,40.0737213 C168.883891,39.4964918 168.626814,39.0289836 168.160366,39.0289836 C167.692328,39.0289836 167.193016,39.4964918 167.043011,40.0737213 C166.893536,40.6514809 167.150082,41.1168689 167.61653,41.1168689" id="Fill-60" fill="#C4A374"></path>
                <path d="M170.213798,42.8013825 C170.363803,42.2262732 170.108317,41.758765 169.642399,41.758765 C169.173301,41.758765 168.673989,42.2262732 168.523984,42.8013825 C168.373978,43.3791421 168.631055,43.8455902 169.098033,43.8455902 C169.565011,43.8455902 170.064322,43.3791421 170.213798,42.8013825" id="Fill-61" fill="#C4A374"></path>
                <path d="M163.549951,22.6555956 C163.081913,22.6555956 162.584721,23.124694 162.433656,23.6998033 C162.28312,24.2770328 162.542317,24.744541 163.007705,24.744541 C163.474153,24.744541 163.975055,24.2770328 164.124,23.6998033 C164.274536,23.124694 164.016929,22.6555956 163.549951,22.6555956" id="Fill-62" fill="#C4A374"></path>
                <path d="M166.467902,19.9279344 C166.000923,19.9279344 165.502672,20.3965027 165.351607,20.9721421 C165.201071,21.5483115 165.459738,22.0152896 165.926716,22.0152896 C166.393694,22.0152896 166.891945,21.5483115 167.043011,20.9721421 C167.191426,20.3965027 166.93594,19.9279344 166.467902,19.9279344" id="Fill-63" fill="#C4A374"></path>
                <path d="M169.402284,17.1997432 C168.935306,17.1997432 168.434934,17.6672514 168.284929,18.2423607 C168.134923,18.8190601 168.392,19.2865683 168.858448,19.2865683 C169.324366,19.2865683 169.825268,18.8190601 169.973683,18.2423607 C170.124749,17.6672514 169.868732,17.1997432 169.402284,17.1997432" id="Fill-64" fill="#C4A374"></path>
                <path d="M172.304333,14.4704918 C171.837355,14.4704918 171.338574,14.938 171.190158,15.5136393 C171.039093,16.0903388 171.29723,16.5573169 171.762617,16.5573169 C172.229596,16.5573169 172.730497,16.0903388 172.878913,15.5136393 C173.028918,14.938 172.772902,14.4704918 172.304333,14.4704918" id="Fill-65" fill="#C4A374"></path>
                <path d="M175.253557,11.7407104 C174.785519,11.7407104 174.285678,12.2082186 174.136202,12.7854481 C173.986197,13.3616175 174.244333,13.8285956 174.710781,13.8285956 C175.17776,13.8285956 175.676541,13.3616175 175.824956,12.7854481 C175.977082,12.2082186 175.718945,11.7407104 175.253557,11.7407104" id="Fill-66" fill="#C4A374"></path>
                <path d="M157.257142,26.4295847 C157.093355,27.0582295 157.373224,27.5665519 157.881016,27.5665519 C158.391989,27.5665519 158.934235,27.0582295 159.098022,26.4295847 C159.261809,25.8009399 158.98194,25.2920874 158.470437,25.2920874 C157.964235,25.2920874 157.420929,25.8009399 157.257142,26.4295847" id="Fill-67" fill="#C4A374"></path>
                <path d="M159.991694,28.0208087 C159.482842,28.0208087 158.939536,28.5307213 158.776279,29.1572459 C158.612492,29.7864208 158.892891,30.2952732 159.402273,30.2952732 C159.910066,30.2952732 160.454432,29.7864208 160.617158,29.1572459 C160.781475,28.5307213 160.502137,28.0208087 159.991694,28.0208087" id="Fill-68" fill="#C4A374"></path>
                <path d="M160.276863,31.8859672 C160.113607,32.5151421 160.394005,33.0239945 160.903388,33.0239945 C161.41118,33.0239945 161.954486,32.5151421 162.118273,31.8859672 C162.28153,31.2594426 162.002191,30.7495301 161.494929,30.7495301 C160.986607,30.7495301 160.44171,31.2594426 160.276863,31.8859672" id="Fill-69" fill="#C4A374"></path>
                <path d="M161.730803,34.6157486 C161.568077,35.2443934 161.847415,35.7527158 162.355738,35.7527158 C162.86512,35.7527158 163.408956,35.2443934 163.571683,34.6157486 C163.736,33.9876339 163.457191,33.4782514 162.946219,33.4782514 C162.437366,33.4782514 161.893,33.9876339 161.730803,34.6157486" id="Fill-70" fill="#C4A374"></path>
                <path d="M165.110432,37.345 C165.272628,36.7168852 164.99329,36.2069727 164.484967,36.2069727 C163.976645,36.2069727 163.432809,36.7168852 163.267962,37.345 C163.105765,37.9720546 163.386164,38.4814372 163.895016,38.4814372 C164.402809,38.4814372 164.947705,37.9720546 165.110432,37.345" id="Fill-71" fill="#C4A374"></path>
                <path d="M166.583984,40.0737213 C166.74724,39.4456066 166.465251,38.936224 165.958519,38.936224 C165.448607,38.936224 164.905301,39.4456066 164.741514,40.0737213 C164.578257,40.700776 164.858656,41.2106885 165.365918,41.2106885 C165.876361,41.2106885 166.420197,40.700776 166.583984,40.0737213" id="Fill-72" fill="#C4A374"></path>
                <path d="M168.064426,42.8013825 C168.228213,42.1743279 167.948874,41.6649454 167.440552,41.6649454 C166.931169,41.6649454 166.386273,42.1743279 166.223546,42.8013825 C166.06029,43.4305574 166.341219,43.9388798 166.849541,43.9388798 C167.357863,43.9388798 167.90329,43.4305574 168.064426,42.8013825" id="Fill-73" fill="#C4A374"></path>
                <path d="M160.132689,23.6998033 C159.969962,24.3295082 160.24824,24.8378306 160.758153,24.8378306 C161.266475,24.8378306 161.810842,24.3295082 161.973568,23.6998033 C162.137885,23.0722186 161.857486,22.5633661 161.347044,22.5633661 C160.840842,22.5633661 160.295945,23.0722186 160.132689,23.6998033" id="Fill-74" fill="#C4A374"></path>
                <path d="M163.050639,20.9721421 C162.887913,21.5997268 163.168842,22.1091093 163.676104,22.1091093 C164.185486,22.1091093 164.730383,21.5997268 164.893639,20.9721421 C165.055836,20.3434973 164.776497,19.8341148 164.266055,19.8341148 C163.758792,19.8341148 163.212836,20.3434973 163.050639,20.9721421" id="Fill-75" fill="#C4A374"></path>
                <path d="M165.983432,18.2423607 C165.821235,18.8710055 166.100574,19.380388 166.608896,19.380388 C167.116158,19.380388 167.663175,18.8710055 167.825372,18.2423607 C167.987038,17.6168962 167.70982,17.1059235 167.200437,17.1059235 C166.691585,17.1059235 166.148279,17.6168962 165.983432,18.2423607" id="Fill-76" fill="#C4A374"></path>
                <path d="M168.887601,15.5136393 C168.724344,16.1428142 169.004743,16.6511366 169.514656,16.6511366 C170.022978,16.6511366 170.566284,16.1428142 170.729541,15.5136393 C170.892268,14.8871148 170.612929,14.3766721 170.105667,14.3766721 C169.595754,14.3766721 169.051388,14.8871148 168.887601,15.5136393" id="Fill-77" fill="#C4A374"></path>
                <path d="M171.835765,12.7854481 C171.670918,13.4130328 171.951317,13.9224153 172.460169,13.9224153 C172.969552,13.9224153 173.513388,13.4130328 173.676645,12.7854481 C173.840432,12.1573333 173.560033,11.6479508 173.05118,11.6479508 C172.541798,11.6479508 171.999022,12.1573333 171.835765,12.7854481" id="Fill-78" fill="#C4A374"></path>
                <path d="M154.982148,26.4295847 C154.797158,27.1345574 155.111481,27.7059563 155.68394,27.7059563 C156.254279,27.7059563 156.867022,27.1345574 157.050951,26.4295847 C157.23329,25.724612 156.918967,25.151623 156.347568,25.151623 C155.77723,25.151623 155.164486,25.724612 154.982148,26.4295847" id="Fill-79" fill="#C4A374"></path>
                <path d="M156.501814,29.1572459 C156.318415,29.8632787 156.632738,30.4352077 157.205197,30.4352077 C157.776596,30.4352077 158.386158,29.8632787 158.569557,29.1572459 C158.753486,28.4533333 158.438634,27.8814044 157.867765,27.8814044 C157.297426,27.8814044 156.685743,28.4533333 156.501814,29.1572459" id="Fill-80" fill="#C4A374"></path>
                <path d="M158.705251,33.1633989 C159.27559,33.1633989 159.886743,32.5935902 160.069082,31.8859672 C160.253011,31.1820546 159.938689,30.6106557 159.36729,30.6106557 C158.797481,30.6106557 158.185798,31.1820546 158.003459,31.8859672 C157.81953,32.5935902 158.133852,33.1633989 158.705251,33.1633989" id="Fill-81" fill="#C4A374"></path>
                <path d="M160.159191,35.8921202 C160.73006,35.8921202 161.340153,35.3212514 161.524082,34.6157486 C161.707481,33.9097158 161.394219,33.3377869 160.82282,33.3377869 C160.249301,33.3377869 159.640268,33.9097158 159.454219,34.6157486 C159.274,35.3212514 159.587792,35.8921202 160.159191,35.8921202" id="Fill-82" fill="#C4A374"></path>
                <path d="M161.69635,38.6213716 C162.268809,38.6213716 162.879432,38.0505027 163.06177,37.345 C163.245699,36.6400273 162.930847,36.0675683 162.361038,36.0675683 C161.788579,36.0675683 161.176896,36.6400273 160.994027,37.345 C160.810628,38.0505027 161.125481,38.6213716 161.69635,38.6213716" id="Fill-83" fill="#C4A374"></path>
                <path d="M163.169902,41.3495628 C163.74024,41.3495628 164.352454,40.778694 164.534262,40.0737213 C164.717661,39.3687486 164.403339,38.7973497 163.83406,38.7973497 C163.262131,38.7973497 162.651508,39.3687486 162.467579,40.0737213 C162.28418,40.778694 162.598503,41.3495628 163.169902,41.3495628" id="Fill-84" fill="#C4A374"></path>
                <path d="M164.650874,44.0782842 C165.223333,44.0782842 165.833956,43.5068852 166.015235,42.8013825 C166.200754,42.0969399 165.886432,41.5239508 165.313973,41.5239508 C164.742574,41.5239508 164.133541,42.0969399 163.949082,42.8013825 C163.766213,43.5068852 164.080005,44.0782842 164.650874,44.0782842" id="Fill-85" fill="#C4A374"></path>
                <path d="M157.857694,23.6998033 C157.674825,24.4068962 157.989148,24.9767049 158.560546,24.9767049 C159.130885,24.9767049 159.742568,24.4068962 159.925967,23.6998033 C160.108836,22.9953607 159.795044,22.4229016 159.223645,22.4229016 C158.652776,22.4229016 158.041093,22.9953607 157.857694,23.6998033" id="Fill-86" fill="#C4A374"></path>
                <path d="M160.776705,20.9721421 C160.593306,21.6765847 160.907628,22.2490437 161.478497,22.2490437 C162.048836,22.2490437 162.661579,21.6765847 162.845508,20.9721421 C163.026787,20.2671694 162.714585,19.6936503 162.141596,19.6936503 C161.570197,19.6936503 160.960104,20.2671694 160.776705,20.9721421" id="Fill-87" fill="#C4A374"></path>
                <path d="M163.709497,18.2423607 C163.527158,18.9489235 163.840951,19.5192623 164.41182,19.5192623 C164.981628,19.5192623 165.593311,18.9489235 165.77724,18.2423607 C165.960639,17.537918 165.647377,16.9665191 165.074918,16.9665191 C164.503519,16.9665191 163.892366,17.537918 163.709497,18.2423607" id="Fill-88" fill="#C4A374"></path>
                <path d="M166.614727,15.5136393 C166.430268,16.2191421 166.74459,16.791071 167.315989,16.791071 C167.888448,16.791071 168.497481,16.2191421 168.68141,15.5136393 C168.864809,14.8091967 168.549426,14.2362077 167.980148,14.2362077 C167.407689,14.2362077 166.796536,14.8091967 166.614727,15.5136393" id="Fill-89" fill="#C4A374"></path>
                <path d="M169.55971,12.7854481 C169.376842,13.4904208 169.691694,14.0623497 170.263093,14.0623497 C170.834492,14.0623497 171.444585,13.4904208 171.628514,12.7854481 C171.810852,12.0804754 171.49865,11.5090765 170.926191,11.5090765 C170.353732,11.5090765 169.743109,12.0804754 169.55971,12.7854481" id="Fill-90" fill="#C4A374"></path>
                <path d="M169.052448,27.1472787 C169.372071,27.1472787 169.716607,26.8260656 169.817847,26.4295847 C169.921738,26.0341639 169.744699,25.7129508 169.424546,25.7129508 C169.102803,25.7129508 168.760388,26.0341639 168.653847,26.4295847 C168.554197,26.8260656 168.730705,27.1472787 169.052448,27.1472787" id="Fill-91" fill="#C4A374"></path>
                <path d="M167.664765,26.4295847 C167.777667,25.9938798 167.582607,25.6424536 167.23065,25.6424536 C166.880284,25.6424536 166.500765,25.9938798 166.388923,26.4295847 C166.276552,26.8636995 166.470552,27.2156557 166.821448,27.2156557 C167.172874,27.2156557 167.552393,26.8636995 167.664765,26.4295847" id="Fill-92" fill="#C4A374"></path>
                <path d="M165.509033,26.4295847 C165.631475,25.9562459 165.421044,25.5724863 165.038344,25.5724863 C164.653525,25.5724863 164.244852,25.9562459 164.12135,26.4295847 C163.997847,26.9023934 164.208279,27.2866831 164.593098,27.2866831 C164.975798,27.2866831 165.38553,26.9023934 165.509033,26.4295847" id="Fill-93" fill="#C4A374"></path>
                <path d="M171.964568,26.4295847 C172.055738,26.0781585 171.897251,25.7929891 171.614202,25.7929891 C171.330093,25.7929891 171.025311,26.0781585 170.934672,26.4295847 C170.842973,26.7804809 171.000399,27.0656503 171.284508,27.0656503 C171.566497,27.0656503 171.873399,26.7804809 171.964568,26.4295847" id="Fill-94" fill="#C4A374"></path>
                <path d="M174.108109,26.4295847 C174.188678,26.1226831 174.051923,25.8751475 173.803858,25.8751475 C173.557383,25.8751475 173.290765,26.1226831 173.211257,26.4295847 C173.131749,26.7348962 173.269033,26.9829617 173.516038,26.9829617 C173.762514,26.9829617 174.028071,26.7348962 174.108109,26.4295847" id="Fill-95" fill="#C4A374"></path>
                <path d="M171.338574,29.1572459 C171.441934,28.7628852 171.264366,28.440082 170.943683,28.440082 C170.62406,28.440082 170.280585,28.7628852 170.177224,29.1572459 C170.073333,29.5531967 170.249311,29.8754699 170.572115,29.8754699 C170.892268,29.8754699 171.234153,29.5531967 171.338574,29.1572459" id="Fill-96" fill="#C4A374"></path>
                <path d="M169.183372,29.1572459 C169.296803,28.7236612 169.102803,28.3717049 168.750317,28.3717049 C168.398361,28.3717049 168.020962,28.7236612 167.90859,29.1572459 C167.795158,29.5924208 167.989158,29.9454372 168.340585,29.9454372 C168.693601,29.9454372 169.071,29.5924208 169.183372,29.1572459" id="Fill-97" fill="#C4A374"></path>
                <path d="M166.112765,30.0154044 C166.495464,30.0154044 166.904667,29.6316448 167.028169,29.1572459 C167.150082,28.6849672 166.94018,28.3012077 166.557481,28.3012077 C166.175842,28.3012077 165.762929,28.6849672 165.641016,29.1572459 C165.516984,29.6316448 165.729005,30.0154044 166.112765,30.0154044" id="Fill-98" fill="#C4A374"></path>
                <path d="M172.804705,29.7943716 C173.086694,29.7943716 173.392536,29.5092022 173.483175,29.1572459 C173.575934,28.8068798 173.418508,28.5217104 173.135459,28.5217104 C172.84976,28.5217104 172.545508,28.8068798 172.452749,29.1572459 C172.362109,29.5092022 172.520596,29.7943716 172.804705,29.7943716" id="Fill-99" fill="#C4A374"></path>
                <path d="M175.035705,29.7122131 C175.284831,29.7122131 175.549328,29.4630874 175.627246,29.1572459 C175.707284,28.8529945 175.57159,28.6043989 175.324055,28.6043989 C175.074929,28.6043989 174.810432,28.8529945 174.730923,29.1572459 C174.653005,29.4630874 174.787639,29.7122131 175.035705,29.7122131" id="Fill-100" fill="#C4A374"></path>
                <path d="M172.839689,31.8859672 C172.941459,31.4910765 172.764421,31.1688033 172.443738,31.1688033 C172.124115,31.1688033 171.780639,31.4910765 171.678339,31.8859672 C171.574448,32.2835082 171.749366,32.6036612 172.072699,32.6036612 C172.392322,32.6036612 172.735268,32.2835082 172.839689,31.8859672" id="Fill-101" fill="#C4A374"></path>
                <path d="M170.685546,31.8859672 C170.797918,31.4518525 170.601798,31.1004262 170.252492,31.1004262 C169.899475,31.1004262 169.524197,31.4518525 169.410765,31.8859672 C169.296803,32.320612 169.490273,32.6730984 169.841169,32.6730984 C170.192596,32.6730984 170.572115,32.320612 170.685546,31.8859672" id="Fill-102" fill="#C4A374"></path>
                <path d="M168.529284,31.8859672 C168.652257,31.4147486 168.441295,31.0293989 168.058596,31.0293989 C167.673776,31.0293989 167.263514,31.4147486 167.141071,31.8859672 C167.019158,32.3603661 167.23012,32.7441257 167.61388,32.7441257 C167.995519,32.7441257 168.407902,32.3603661 168.529284,31.8859672" id="Fill-103" fill="#C4A374"></path>
                <path d="M174.98641,31.8859672 C175.074929,31.5361311 174.920153,31.2504317 174.634454,31.2504317 C174.350874,31.2504317 174.046623,31.5361311 173.954923,31.8859672 C173.863224,32.2373934 174.02118,32.5230929 174.303699,32.5230929 C174.588869,32.5230929 174.89259,32.2373934 174.98641,31.8859672" id="Fill-104" fill="#C4A374"></path>
                <path d="M177.128361,31.8859672 C177.208399,31.5811858 177.070585,31.3331202 176.82623,31.3331202 C176.577104,31.3331202 176.311546,31.5811858 176.232568,31.8859672 C176.15306,32.193929 176.288754,32.4409344 176.53576,32.4409344 C176.785945,32.4409344 177.050443,32.193929 177.128361,31.8859672" id="Fill-105" fill="#C4A374"></path>
                <path d="M174.290978,34.6157486 C174.396459,34.2197978 174.219421,33.8991148 173.897148,33.8991148 C173.577525,33.8991148 173.234049,34.2197978 173.130689,34.6157486 C173.028388,35.0116995 173.205956,35.3323825 173.525579,35.3323825 C173.845202,35.3323825 174.189208,35.0116995 174.290978,34.6157486" id="Fill-106" fill="#C4A374"></path>
                <path d="M172.136306,34.6157486 C172.250798,34.1811038 172.057328,33.8280874 171.706432,33.8280874 C171.353945,33.8280874 170.975486,34.1811038 170.862055,34.6157486 C170.749683,35.0498634 170.943683,35.4028798 171.294579,35.4028798 C171.648656,35.4028798 172.022344,35.0498634 172.136306,34.6157486" id="Fill-107" fill="#C4A374"></path>
                <path d="M169.06729,35.4717869 C169.448929,35.4717869 169.859191,35.0896175 169.983224,34.6157486 C170.105667,34.1429399 169.894175,33.7581202 169.511475,33.7581202 C169.128246,33.7581202 168.717984,34.1429399 168.594481,34.6157486 C168.472568,35.0896175 168.68247,35.4717869 169.06729,35.4717869" id="Fill-108" fill="#C4A374"></path>
                <path d="M176.437169,34.6157486 C176.529399,34.2648525 176.371973,33.9796831 176.087863,33.9796831 C175.804814,33.9796831 175.498973,34.2648525 175.408333,34.6157486 C175.316104,34.9666448 175.47353,35.2512842 175.758169,35.2512842 C176.042279,35.2512842 176.34706,34.9666448 176.437169,34.6157486" id="Fill-109" fill="#C4A374"></path>
                <path d="M178.582831,34.6157486 C178.663399,34.308847 178.525055,34.0618415 178.278579,34.0618415 C178.031574,34.0618415 177.764956,34.308847 177.685448,34.6157486 C177.60647,34.9215902 177.742164,35.1696557 177.99235,35.1696557 C178.238295,35.1696557 178.503322,34.9215902 178.582831,34.6157486" id="Fill-110" fill="#C4A374"></path>
                <path d="M175.064858,38.0611038 C175.384481,38.0611038 175.729016,37.7409508 175.830787,37.345 C175.934148,36.9495792 175.758169,36.626776 175.436956,36.626776 C175.117333,36.626776 174.771738,36.9495792 174.669437,37.345 C174.567667,37.7409508 174.744705,38.0611038 175.064858,38.0611038" id="Fill-111" fill="#C4A374"></path>
                <path d="M172.833858,38.1316011 C173.186874,38.1316011 173.562153,37.7785847 173.675585,37.345 C173.789016,36.9103552 173.597137,36.5573388 173.24253,36.5573388 C172.890574,36.5573388 172.514235,36.9103552 172.400803,37.345 C172.288432,37.7785847 172.482432,38.1316011 172.833858,38.1316011" id="Fill-112" fill="#C4A374"></path>
                <path d="M171.521443,37.345 C171.644415,36.8716612 171.432923,36.4873716 171.049694,36.4873716 C170.668055,36.4873716 170.255672,36.8716612 170.13429,37.345 C170.011317,37.8183388 170.221219,38.2015683 170.604978,38.2015683 C170.989268,38.2015683 171.39794,37.8183388 171.521443,37.345" id="Fill-113" fill="#C4A374"></path>
                <path d="M177.296918,37.9805355 C177.581027,37.9805355 177.885809,37.6953661 177.976448,37.345 C178.067087,36.9935738 177.911781,36.7078743 177.627672,36.7078743 C177.342503,36.7078743 177.037721,36.9935738 176.947082,37.345 C176.855383,37.6953661 177.012279,37.9805355 177.296918,37.9805355" id="Fill-114" fill="#C4A374"></path>
                <path d="M179.526858,37.898377 C179.778104,37.898377 180.041541,37.6497814 180.122639,37.345 C180.201087,37.0375683 180.064863,36.7905628 179.818388,36.7905628 C179.568202,36.7905628 179.303705,37.0375683 179.224727,37.345 C179.145219,37.6497814 179.281443,37.898377 179.526858,37.898377" id="Fill-115" fill="#C4A374"></path>
                <path d="M177.304339,40.0737213 C177.406109,39.6772404 177.231191,39.3554973 176.908388,39.3554973 C176.588765,39.3554973 176.24476,39.6772404 176.141929,40.0737213 C176.039628,40.4702022 176.215607,40.7898251 176.53576,40.7898251 C176.856443,40.7898251 177.199918,40.4702022 177.304339,40.0737213" id="Fill-116" fill="#C4A374"></path>
                <path d="M175.148607,40.0737213 C175.262038,39.6374863 175.067508,39.2860601 174.716082,39.2860601 C174.363596,39.2860601 173.987257,39.6374863 173.873295,40.0737213 C173.761984,40.5078361 173.954923,40.8597923 174.30582,40.8597923 C174.659366,40.8597923 175.035705,40.5078361 175.148607,40.0737213" id="Fill-117" fill="#C4A374"></path>
                <path d="M172.994464,40.0737213 C173.115847,39.5993224 172.906475,39.2155628 172.523246,39.2155628 C172.140546,39.2155628 171.728694,39.5993224 171.606781,40.0737213 C171.483809,40.5470601 171.69265,40.9313497 172.07747,40.9313497 C172.46229,40.9313497 172.872552,40.5470601 172.994464,40.0737213" id="Fill-118" fill="#C4A374"></path>
                <path d="M179.44947,40.0737213 C179.540109,39.7222951 179.384273,39.4376557 179.100164,39.4376557 C178.814464,39.4376557 178.511273,39.7222951 178.419044,40.0737213 C178.327344,40.4240874 178.48477,40.7087268 178.76888,40.7087268 C179.054579,40.7087268 179.35777,40.4240874 179.44947,40.0737213" id="Fill-119" fill="#C4A374"></path>
                <path d="M181.593011,40.0737213 C181.674109,39.7668197 181.537355,39.5192842 181.28929,39.5192842 C181.041754,39.5192842 180.776197,39.7668197 180.695628,40.0737213 C180.61771,40.3800929 180.754464,40.6270984 181.00147,40.6270984 C181.249005,40.6270984 181.515623,40.3800929 181.593011,40.0737213" id="Fill-120" fill="#C4A374"></path>
                <path d="M178.785311,42.8013825 C178.889732,42.4059617 178.712694,42.0852787 178.389361,42.0852787 C178.071858,42.0852787 177.726262,42.4059617 177.623962,42.8013825 C177.519541,43.1978634 177.698169,43.5201366 178.018852,43.5201366 C178.338475,43.5201366 178.682481,43.1978634 178.785311,42.8013825" id="Fill-121" fill="#C4A374"></path>
                <path d="M176.630109,42.8013825 C176.743541,42.3677978 176.549541,42.0153115 176.198115,42.0153115 C175.845098,42.0153115 175.46982,42.3677978 175.356388,42.8013825 C175.242956,43.2360273 175.436956,43.5901038 175.789443,43.5901038 C176.141399,43.5901038 176.516678,43.2360273 176.630109,42.8013825" id="Fill-122" fill="#C4A374"></path>
                <path d="M174.475967,42.8013825 C174.6,42.3285738 174.387978,41.9448142 174.004219,41.9448142 C173.621519,41.9448142 173.211257,42.3285738 173.086694,42.8013825 C172.966902,43.2757814 173.176273,43.660071 173.559503,43.660071 C173.941142,43.660071 174.354585,43.2757814 174.475967,42.8013825" id="Fill-123" fill="#C4A374"></path>
                <path d="M180.929913,42.8013825 C181.021612,42.4510164 180.865776,42.166377 180.580077,42.166377 C180.296497,42.166377 179.994366,42.4510164 179.901607,42.8013825 C179.812027,43.1522787 179.967333,43.4379781 180.250383,43.4379781 C180.535552,43.4379781 180.839273,43.1522787 180.929913,42.8013825" id="Fill-124" fill="#C4A374"></path>
                <path d="M182.483503,43.3558197 C182.730508,43.3558197 182.996066,43.107224 183.076104,42.8013825 C183.154552,42.496071 183.018328,42.2485355 182.770792,42.2485355 C182.523787,42.2485355 182.25929,42.496071 182.178721,42.8013825 C182.099743,43.107224 182.233317,43.3558197 182.483503,43.3558197" id="Fill-125" fill="#C4A374"></path>
                <path d="M172.693923,23.6998033 C172.797284,23.3038525 172.619716,22.9842295 172.300093,22.9842295 C171.97941,22.9842295 171.635934,23.3038525 171.534694,23.6998033 C171.430803,24.0978743 171.608372,24.4180273 171.927995,24.4180273 C172.247617,24.4180273 172.592153,24.0978743 172.693923,23.6998033" id="Fill-126" fill="#C4A374"></path>
                <path d="M170.538721,23.6998033 C170.653213,23.2667486 170.459213,22.9137322 170.106727,22.9137322 C169.75477,22.9137322 169.377372,23.2667486 169.26606,23.6998033 C169.152098,24.1360383 169.346628,24.4879945 169.699115,24.4879945 C170.050541,24.4879945 170.42688,24.1360383 170.538721,23.6998033" id="Fill-127" fill="#C4A374"></path>
                <path d="M168.384579,23.6998033 C168.507552,23.2280546 168.29659,22.843235 167.913891,22.843235 C167.530131,22.843235 167.119869,23.2280546 166.997426,23.6998033 C166.872863,24.1736721 167.085945,24.5574317 167.468115,24.5574317 C167.851874,24.5574317 168.262137,24.1736721 168.384579,23.6998033" id="Fill-128" fill="#C4A374"></path>
                <path d="M174.839055,23.6998033 C174.931284,23.3494372 174.772798,23.0647978 174.489749,23.0647978 C174.206699,23.0647978 173.900858,23.3494372 173.809158,23.6998033 C173.718519,24.0512295 173.877005,24.3348087 174.160055,24.3348087 C174.442044,24.3348087 174.748945,24.0512295 174.839055,23.6998033" id="Fill-129" fill="#C4A374"></path>
                <path d="M176.983656,23.6998033 C177.065284,23.3944918 176.92853,23.1464262 176.680464,23.1464262 C176.434519,23.1464262 176.166842,23.3944918 176.087863,23.6998033 C176.007295,24.0061749 176.145109,24.2553005 176.392115,24.2553005 C176.63859,24.2553005 176.905208,24.0061749 176.983656,23.6998033" id="Fill-130" fill="#C4A374"></path>
                <path d="M174.452115,20.9721421 C174.347694,21.3675628 174.526322,21.688776 174.845415,21.688776 C175.165568,21.688776 175.511164,21.3675628 175.612934,20.9721421 C175.717355,20.5751311 175.539257,20.2555082 175.219104,20.2555082 C174.898421,20.2555082 174.553885,20.5751311 174.452115,20.9721421" id="Fill-131" fill="#C4A374"></path>
                <path d="M172.183481,20.9721421 C172.072169,21.4062568 172.264579,21.7592732 172.617066,21.7592732 C172.969552,21.7592732 173.344831,21.4062568 173.456672,20.9721421 C173.570634,20.5374973 173.376104,20.1850109 173.024678,20.1850109 C172.672721,20.1850109 172.296383,20.5374973 172.183481,20.9721421" id="Fill-132" fill="#C4A374"></path>
                <path d="M169.914317,20.9721421 C169.793464,21.4460109 170.002836,21.8292404 170.386596,21.8292404 C170.769825,21.8292404 171.180617,21.4460109 171.30253,20.9721421 C171.427093,20.4982732 171.214541,20.1145137 170.833962,20.1145137 C170.448082,20.1145137 170.03888,20.4982732 169.914317,20.9721421" id="Fill-133" fill="#C4A374"></path>
                <path d="M176.73029,20.9721421 C176.63859,21.3225082 176.794956,21.6076776 177.078005,21.6076776 C177.362115,21.6076776 177.666896,21.3225082 177.757536,20.9721421 C177.849235,20.6207158 177.693399,20.3355464 177.407699,20.3355464 C177.12465,20.3355464 176.818809,20.6207158 176.73029,20.9721421" id="Fill-134" fill="#C4A374"></path>
                <path d="M179.005814,20.9721421 C178.925246,21.2790437 179.06359,21.5255191 179.311126,21.5255191 C179.560251,21.5255191 179.822628,21.2790437 179.903727,20.9721421 C179.982175,20.6663005 179.845951,20.4177049 179.597355,20.4177049 C179.35141,20.4177049 179.086383,20.6663005 179.005814,20.9721421" id="Fill-135" fill="#C4A374"></path>
                <path d="M177.384907,18.2423607 C177.280486,18.6393716 177.458055,18.9595246 177.778738,18.9595246 C178.099421,18.9595246 178.441836,18.6393716 178.545197,18.2423607 C178.648557,17.8464098 178.473109,17.5251967 178.150306,17.5251967 C177.830153,17.5251967 177.486678,17.8464098 177.384907,18.2423607" id="Fill-136" fill="#C4A374"></path>
                <path d="M175.117333,18.2423607 C175.003902,18.6770055 175.196842,19.0294918 175.549328,19.0294918 C175.901284,19.0294918 176.277623,18.6770055 176.391055,18.2423607 C176.503956,17.809306 176.310486,17.4562896 175.95906,17.4562896 C175.606044,17.4562896 175.230765,17.809306 175.117333,18.2423607" id="Fill-137" fill="#C4A374"></path>
                <path d="M174.235322,18.2423607 C174.359885,17.7695519 174.149984,17.3852623 173.765694,17.3852623 C173.381934,17.3852623 172.972202,17.7695519 172.847639,18.2423607 C172.725197,18.7162295 172.937219,19.0999891 173.320448,19.0999891 C173.704208,19.0999891 174.11447,18.7162295 174.235322,18.2423607" id="Fill-138" fill="#C4A374"></path>
                <path d="M180.690858,18.2423607 C180.782027,17.8925246 180.627251,17.6068251 180.340492,17.6068251 C180.057443,17.6068251 179.751601,17.8925246 179.661492,18.2423607 C179.569262,18.5932568 179.725628,18.8789563 180.011328,18.8789563 C180.295437,18.8789563 180.599689,18.5932568 180.690858,18.2423607" id="Fill-139" fill="#C4A374"></path>
                <path d="M182.244448,18.7967978 C182.491454,18.7967978 182.757011,18.5482022 182.834929,18.2423607 C182.915497,17.9370492 182.779273,17.6889836 182.530148,17.6889836 C182.283672,17.6889836 182.020235,17.9370492 181.939667,18.2423607 C181.860689,18.5482022 181.995322,18.7967978 182.244448,18.7967978" id="Fill-140" fill="#C4A374"></path>
                <path d="M180.289077,15.5136393 C180.185716,15.9106503 180.361694,16.2323934 180.683967,16.2323934 C181.00359,16.2323934 181.347066,15.9106503 181.448306,15.5136393 C181.552727,15.1182186 181.375158,14.7980656 181.054475,14.7980656 C180.734852,14.7980656 180.391907,15.1182186 180.289077,15.5136393" id="Fill-141" fill="#C4A374"></path>
                <path d="M178.86376,14.7270383 C178.511273,14.7270383 178.133874,15.0800546 178.020443,15.5136393 C177.907011,15.9482842 178.101011,16.3013005 178.452967,16.3013005 C178.806514,16.3013005 179.181792,15.9482842 179.295224,15.5136393 C179.408656,15.0800546 179.214656,14.7270383 178.86376,14.7270383" id="Fill-142" fill="#C4A374"></path>
                <path d="M176.669333,14.657071 C176.286634,14.657071 175.876372,15.0408306 175.751809,15.5136393 C175.629366,15.9875082 175.839798,16.3717978 176.224617,16.3717978 C176.606257,16.3717978 177.017579,15.9875082 177.139492,15.5136393 C177.262995,15.0408306 177.052563,14.657071 176.669333,14.657071" id="Fill-143" fill="#C4A374"></path>
                <path d="M182.565661,15.5136393 C182.473432,15.8650656 182.631918,16.150235 182.915497,16.150235 C183.199607,16.150235 183.504388,15.8650656 183.595557,15.5136393 C183.687787,15.1632732 183.530891,14.8781038 183.246251,14.8781038 C182.961612,14.8781038 182.656301,15.1632732 182.565661,15.5136393" id="Fill-144" fill="#C4A374"></path>
                <path d="M185.739098,15.5136393 C185.820197,15.2083279 185.683443,14.9602623 185.434317,14.9602623 C185.187842,14.9602623 184.922284,15.2083279 184.843836,15.5136393 C184.764858,15.8189508 184.899492,16.0686066 185.149678,16.0686066 C185.396683,16.0686066 185.66224,15.8189508 185.739098,15.5136393" id="Fill-145" fill="#C4A374"></path>
                <path d="M183.23459,12.7854481 C183.13176,13.1813989 183.308798,13.5015519 183.630011,13.5015519 C183.950694,13.5015519 184.293109,13.1813989 184.39859,12.7854481 C184.500891,12.3894973 184.323322,12.0682842 184.001049,12.0682842 C183.680366,12.0682842 183.339541,12.3894973 183.23459,12.7854481" id="Fill-146" fill="#C4A374"></path>
                <path d="M180.967546,12.7854481 C180.855175,13.221153 181.049175,13.5725792 181.401131,13.5725792 C181.751497,13.5725792 182.129956,13.221153 182.242328,12.7854481 C182.35523,12.3502732 182.160169,11.9983169 181.809273,11.9983169 C181.456787,11.9983169 181.080448,12.3502732 180.967546,12.7854481" id="Fill-147" fill="#C4A374"></path>
                <path d="M178.699973,12.7854481 C178.57647,13.2582568 178.787962,13.6420164 179.170661,13.6420164 C179.554421,13.6420164 179.964153,13.2582568 180.088186,12.7854481 C180.209568,12.3121093 179.999667,11.9288798 179.615907,11.9288798 C179.233208,11.9288798 178.821885,12.3121093 178.699973,12.7854481" id="Fill-148" fill="#C4A374"></path>
                <path d="M186.541601,12.7854481 C186.633831,12.4340219 186.477464,12.1488525 186.193355,12.1488525 C185.907656,12.1488525 185.604464,12.4340219 185.512235,12.7854481 C185.421596,13.1368743 185.579022,13.4204536 185.863661,13.4204536 C186.14671,13.4204536 186.452022,13.1368743 186.541601,12.7854481" id="Fill-149" fill="#C4A374"></path>
                <path d="M188.382481,12.231541 C188.134415,12.231541 187.868858,12.4785464 187.78988,12.7854481 C187.711432,13.0923497 187.845536,13.3393552 188.095191,13.3393552 C188.343257,13.3393552 188.607754,13.0923497 188.687262,12.7854481 C188.76624,12.4785464 188.630016,12.231541 188.382481,12.231541" id="Fill-150" fill="#C4A374"></path>
                <path d="M161.861197,26.4295847 C161.723913,26.9601694 161.960317,27.3921639 162.391251,27.3921639 C162.821126,27.3921639 163.281743,26.9601694 163.419027,26.4295847 C163.558962,25.8974098 163.322027,25.4664754 162.890563,25.4664754 C162.460158,25.4664754 162.000071,25.8974098 161.861197,26.4295847" id="Fill-151" fill="#C4A374"></path>
                <path d="M163.381393,29.1572459 C163.244109,29.6904809 163.479454,30.1192951 163.911448,30.1192951 C164.342383,30.1192951 164.803,29.6904809 164.938164,29.1572459 C165.075978,28.6261311 164.839574,28.1951967 164.41182,28.1951967 C163.979295,28.1951967 163.520798,28.6261311 163.381393,29.1572459" id="Fill-152" fill="#C4A374"></path>
                <path d="M166.439279,31.8859672 C166.578683,31.3548525 166.341219,30.9255082 165.911344,30.9255082 C165.47988,30.9255082 165.019792,31.3548525 164.882508,31.8859672 C164.742574,32.4186721 164.979508,32.8490765 165.410973,32.8490765 C165.841377,32.8490765 166.304115,32.4186721 166.439279,31.8859672" id="Fill-153" fill="#C4A374"></path>
                <path d="M166.865443,35.5772678 C167.294257,35.5772678 167.756464,35.1463333 167.892689,34.6157486 C168.031033,34.0835738 167.795158,33.6542295 167.364754,33.6542295 C166.93382,33.6542295 166.474262,34.0835738 166.335918,34.6157486 C166.198634,35.1463333 166.435568,35.5772678 166.865443,35.5772678" id="Fill-154" fill="#C4A374"></path>
                <path d="M169.432497,37.345 C169.570842,36.8149454 169.334437,36.3818907 168.904033,36.3818907 C168.473628,36.3818907 168.013011,36.8149454 167.874667,37.345 C167.737913,37.8761148 167.975377,38.3059891 168.403131,38.3059891 C168.834596,38.3059891 169.294153,37.8761148 169.432497,37.345" id="Fill-155" fill="#C4A374"></path>
                <path d="M169.876683,41.0347104 C170.307087,41.0347104 170.767175,40.604306 170.904989,40.0737213 C171.045454,39.5415464 170.807459,39.110612 170.376525,39.110612 C169.94559,39.110612 169.484443,39.5415464 169.349279,40.0737213 C169.208814,40.604306 169.446279,41.0347104 169.876683,41.0347104" id="Fill-156" fill="#C4A374"></path>
                <path d="M172.388082,42.8013825 C172.525366,42.2702678 172.288432,41.8403934 171.857497,41.8403934 C171.427093,41.8403934 170.966475,42.2702678 170.829191,42.8013825 C170.689787,43.3330273 170.927251,43.7650219 171.357656,43.7650219 C171.78912,43.7650219 172.249738,43.3330273 172.388082,42.8013825" id="Fill-157" fill="#C4A374"></path>
                <path d="M164.737803,23.6998033 C164.599459,24.2325082 164.835863,24.6613224 165.267328,24.6613224 C165.696672,24.6613224 166.15729,24.2325082 166.295634,23.6998033 C166.435038,23.1702787 166.197574,22.7382842 165.767169,22.7382842 C165.336765,22.7382842 164.877208,23.1702787 164.737803,23.6998033" id="Fill-158" fill="#C4A374"></path>
                <path d="M167.655754,20.9721421 C167.51953,21.5037869 167.753814,21.9331311 168.185279,21.9331311 C168.615683,21.9331311 169.07524,21.5037869 169.215705,20.9721421 C169.352989,20.4399672 169.115525,20.0100929 168.68406,20.0100929 C168.255776,20.0100929 167.794098,20.4399672 167.655754,20.9721421" id="Fill-159" fill="#C4A374"></path>
                <path d="M171.616852,17.2803115 C171.187508,17.2803115 170.727421,17.712306 170.589077,18.2423607 C170.450732,18.7745355 170.688197,19.2049399 171.117541,19.2049399 C171.547945,19.2049399 172.008033,18.7745355 172.146377,18.2423607 C172.285251,17.712306 172.048317,17.2803115 171.616852,17.2803115" id="Fill-160" fill="#C4A374"></path>
                <path d="M173.494306,15.5136393 C173.354372,16.0463443 173.592366,16.4756885 174.02277,16.4756885 C174.452115,16.4756885 174.913262,16.0463443 175.050546,15.5136393 C175.189421,14.9835847 174.952486,14.5526503 174.522612,14.5526503 C174.090617,14.5526503 173.63159,14.9835847 173.494306,15.5136393" id="Fill-161" fill="#C4A374"></path>
                <path d="M176.44088,12.7854481 C176.302536,13.3160328 176.53841,13.7469672 176.968284,13.7469672 C177.400279,13.7469672 177.860896,13.3160328 177.99765,12.7854481 C178.135995,12.2532732 177.89959,11.823929 177.468126,11.823929 C177.039842,11.823929 176.577104,12.2532732 176.44088,12.7854481" id="Fill-162" fill="#C4A374"></path>
                <path d="M176.291404,26.4295847 C176.367202,26.1422951 176.238399,25.9096011 176.005705,25.9096011 C175.774601,25.9096011 175.525475,26.1422951 175.451268,26.4295847 C175.37653,26.7152842 175.504803,26.9485082 175.737497,26.9485082 C175.969661,26.9485082 176.216137,26.7152842 176.291404,26.4295847" id="Fill-163" fill="#C4A374"></path>
                <path d="M177.256634,29.6772295 C177.488268,29.6772295 177.737393,29.4450656 177.810541,29.1572459 C177.885809,28.8726066 177.757536,28.6393825 177.526962,28.6393825 C177.294268,28.6393825 177.045142,28.8726066 176.970934,29.1572459 C176.896727,29.4450656 177.02606,29.6772295 177.256634,29.6772295" id="Fill-164" fill="#C4A374"></path>
                <path d="M179.312716,31.8859672 C179.385863,31.6002678 179.25865,31.3681038 179.027016,31.3681038 C178.795383,31.3681038 178.547317,31.6002678 178.473109,31.8859672 C178.398902,32.174847 178.525055,32.4059508 178.758809,32.4059508 C178.988322,32.4059508 179.239568,32.174847 179.312716,31.8859672" id="Fill-165" fill="#C4A374"></path>
                <path d="M180.766126,34.6157486 C180.840333,34.3289891 180.71206,34.0973552 180.480426,34.0973552 C180.247732,34.0973552 179.999667,34.3289891 179.926519,34.6157486 C179.851251,34.9030383 179.979525,35.1352022 180.209568,35.1352022 C180.443852,35.1352022 180.690858,34.9030383 180.766126,34.6157486" id="Fill-166" fill="#C4A374"></path>
                <path d="M182.303284,37.345 C182.380142,37.0587705 182.251869,36.8255464 182.020235,36.8255464 C181.786481,36.8255464 181.538415,37.0587705 181.464208,37.345 C181.38788,37.6317596 181.518273,37.8633934 181.748847,37.8633934 C181.982601,37.8633934 182.229607,37.6317596 182.303284,37.345" id="Fill-167" fill="#C4A374"></path>
                <path d="M183.777366,40.0737213 C183.852634,39.7864317 183.72277,39.5542678 183.491137,39.5542678 C183.258973,39.5542678 183.010907,39.7864317 182.935639,40.0737213 C182.862492,40.3604809 182.989175,40.5921148 183.222399,40.5921148 C183.453503,40.5921148 183.702628,40.3604809 183.777366,40.0737213" id="Fill-168" fill="#C4A374"></path>
                <path d="M184.703372,43.3208361 C184.937126,43.3208361 185.185191,43.0886721 185.257809,42.8013825 C185.332546,42.515153 185.206393,42.2840492 184.97476,42.2840492 C184.742066,42.2840492 184.49188,42.515153 184.418732,42.8013825 C184.343464,43.0886721 184.472798,43.3208361 184.703372,43.3208361" id="Fill-169" fill="#C4A374"></path>
                <path d="M179.168011,23.6998033 C179.242219,23.4135738 179.113945,23.1803497 178.882311,23.1803497 C178.650678,23.1803497 178.402612,23.4135738 178.327344,23.6998033 C178.254197,23.987623 178.38035,24.2197869 178.613044,24.2197869 C178.845738,24.2197869 179.092213,23.987623 179.168011,23.6998033" id="Fill-170" fill="#C4A374"></path>
                <path d="M182.085962,20.9721421 C182.160169,20.6853825 182.034016,20.4532186 181.800262,20.4532186 C181.569158,20.4532186 181.321093,20.6853825 181.246355,20.9721421 C181.170027,21.2578415 181.299891,21.4910656 181.529934,21.4910656 C181.764749,21.4910656 182.011754,21.2578415 182.085962,20.9721421" id="Fill-171" fill="#C4A374"></path>
                <path d="M185.020344,18.2423607 C185.094552,17.9561311 184.966279,17.7244973 184.733585,17.7244973 C184.501951,17.7244973 184.252825,17.9561311 184.177557,18.2423607 C184.10547,18.5301803 184.232683,18.7618142 184.464317,18.7618142 C184.695421,18.7618142 184.946137,18.5301803 185.020344,18.2423607" id="Fill-172" fill="#C4A374"></path>
                <path d="M187.923454,15.5136393 C187.997131,15.2274098 187.868858,14.995776 187.638814,14.995776 C187.40612,14.995776 187.155934,15.2274098 187.082787,15.5136393 C187.009639,15.8003989 187.137913,16.0330929 187.367956,16.0330929 C187.60012,16.0330929 187.850306,15.8003989 187.923454,15.5136393" id="Fill-173" fill="#C4A374"></path>
                <path d="M190.585918,12.2665246 C190.352694,12.2665246 190.105158,12.4986885 190.032011,12.7854481 C189.955683,13.0727377 190.083956,13.3043716 190.31506,13.3043716 C190.548284,13.3043716 190.79741,13.0727377 190.871087,12.7854481 C190.945295,12.4986885 190.817552,12.2665246 190.585918,12.2665246" id="Fill-174" fill="#C4A374"></path>
                <path d="M145.803191,35.6588962 C145.849306,35.7760383 145.906022,35.8772787 145.979169,35.967918 C145.882169,36.0410656 145.79047,36.1237541 145.701951,36.2154536 C145.660607,36.1073224 145.605481,36.0097923 145.537104,35.9239235 C145.631454,35.8438852 145.719973,35.7558962 145.803191,35.6588962 Z M145.827044,27.2230765 C145.877399,27.4446393 145.98023,27.6280383 146.124934,27.7600219 C145.930934,27.8750437 145.747536,28.0340601 145.591169,28.2243497 C145.537634,28.0287596 145.446464,27.8633825 145.320842,27.7372295 C145.507421,27.6004754 145.682339,27.4244973 145.827044,27.2230765 Z M144.893087,30.8428197 C144.847503,30.7113661 144.781246,30.593694 144.699617,30.4929836 C144.847503,30.3811421 144.982667,30.2459781 145.106699,30.0917322 C145.152284,30.2396175 145.222781,30.3673607 145.312361,30.4707213 C145.163945,30.5724918 145.022421,30.6986448 144.893087,30.8428197 Z M144.898388,22.1011585 C144.940792,22.1992186 144.996448,22.2866776 145.059525,22.3656557 C144.948213,22.4515246 144.844322,22.5501148 144.749443,22.6582459 C144.712339,22.552765 144.665164,22.4584153 144.606328,22.3741366 C144.708098,22.2925082 144.806158,22.2013388 144.898388,22.1011585 Z M144.163202,33.4862022 C144.128219,33.396623 144.085284,33.3134044 144.031219,33.2391967 C144.14465,33.1490874 144.252781,33.0436066 144.350842,32.9301749 C144.387415,33.0292951 144.43512,33.1199344 144.491836,33.1999727 C144.378404,33.2831913 144.267623,33.3796612 144.163202,33.4862022 Z M144.206137,24.744541 C144.262322,24.8966667 144.348191,25.0291803 144.453672,25.132541 C144.315328,25.2348415 144.187055,25.356224 144.071503,25.4940383 C144.027508,25.3329016 143.953301,25.190847 143.860011,25.074235 C143.983514,24.9788251 144.098005,24.8680437 144.206137,24.744541 Z M143.390383,28.1140984 C143.345328,27.9789344 143.275891,27.858082 143.192142,27.7568415 C143.334197,27.6465902 143.46724,27.5135464 143.585443,27.3646011 C143.633678,27.5146066 143.706295,27.6444699 143.800645,27.7499508 C143.65488,27.8506612 143.515475,27.975224 143.390383,28.1140984 Z M142.711383,30.7580109 C142.672158,30.6588907 142.620743,30.5666612 142.561377,30.4860929 C142.662087,30.4007541 142.758027,30.3058743 142.848667,30.2009235 C142.890011,30.3095847 142.943016,30.4076448 143.008213,30.4929836 C142.904852,30.5693115 142.804142,30.6588907 142.711383,30.7580109 Z M141.871776,25.3859071 C141.832552,25.2735355 141.781667,25.1691148 141.71594,25.0800656 C141.806579,25.0047978 141.896158,24.9205191 141.979907,24.8304098 C142.025492,24.9369508 142.084328,25.0318306 142.156415,25.1150492 C142.054645,25.1945574 141.960295,25.2867869 141.871776,25.3859071 Z M141.209738,28.0298197 C141.168923,27.9243388 141.115918,27.8305191 141.051781,27.7462404 C141.150902,27.6651421 141.243131,27.5723825 141.33059,27.4732623 C141.372464,27.5851038 141.42759,27.6852842 141.497027,27.7727432 C141.396317,27.849071 141.299317,27.9333497 141.209738,28.0298197 Z M146.463109,24.6348197 C146.526716,24.8362404 146.634847,25.0047978 146.779022,25.1214098 C146.580251,25.2512732 146.395792,25.4288415 146.238366,25.636623 C146.196492,25.4198306 146.106383,25.2348415 145.979169,25.0954372 C146.154087,24.9719344 146.318404,24.8155683 146.463109,24.6348197 Z M147.126208,22.0147596 C147.179213,22.1589344 147.256071,22.2845574 147.354131,22.3863279 C147.207306,22.4902186 147.071082,22.6195519 146.949169,22.7653169 C146.907295,22.6131913 146.838388,22.4774973 146.749339,22.3640656 C146.883973,22.2649454 147.008536,22.1462131 147.126208,22.0147596 Z M148.051153,27.1107049 C148.094087,27.3995847 148.225011,27.6343989 148.420071,27.7785738 C148.173596,27.9110874 147.945672,28.1162186 147.759623,28.3658743 C147.706617,28.1061475 147.590005,27.8925355 147.414557,27.7462404 C147.655202,27.5941148 147.876235,27.3741421 148.051153,27.1107049 Z M147.83118,19.371377 C147.873055,19.467847 147.92553,19.554776 147.985956,19.6316339 C147.873055,19.7175027 147.765984,19.8176831 147.666333,19.9279344 C147.63135,19.8277541 147.584705,19.7344645 147.529049,19.6512459 C147.63612,19.5690874 147.736831,19.4752678 147.83118,19.371377 Z M148.70312,24.492765 C148.762486,24.7562022 148.89553,24.9666339 149.08688,25.0970273 C148.827683,25.2438525 148.588628,25.4707158 148.403639,25.7474044 C148.367066,25.4707158 148.250454,25.2417322 148.075005,25.0906667 C148.31035,24.9443716 148.525552,24.7403005 148.70312,24.492765 Z M149.38,21.9071585 C149.442016,22.1000984 149.544847,22.2607049 149.681071,22.378377 C149.47223,22.5087705 149.27823,22.6916393 149.114443,22.9068415 C149.074158,22.7001202 148.98988,22.523082 148.869027,22.3847377 C149.055607,22.2580546 149.230525,22.096388 149.38,21.9071585 Z M150.05741,19.2865683 C150.108825,19.428623 150.184623,19.5526557 150.278973,19.652306 C150.131617,19.7577869 149.991683,19.8881803 149.86818,20.0381858 C149.825776,19.8865902 149.761109,19.7540765 149.67365,19.6417049 C149.810404,19.5420546 149.938678,19.4212022 150.05741,19.2865683 Z M150.73535,16.6426557 C150.778284,16.7449563 150.83712,16.8350656 150.901787,16.9156339 C150.793656,16.9993825 150.694005,17.0942623 150.599656,17.1997432 C150.563082,17.0926721 150.514847,16.9951421 150.453361,16.9092732 C150.551421,16.829765 150.647361,16.7396557 150.73535,16.6426557 Z M151.397388,25.1118689 C151.086776,25.2629344 150.801077,25.5343224 150.598066,25.8730273 C150.576863,25.520541 150.433219,25.2348415 150.202115,25.0705246 C150.477213,24.919459 150.732699,24.677224 150.925109,24.3830437 C150.975995,24.7180383 151.144552,24.9798852 151.397388,25.1118689 Z M151.621601,21.7656339 C151.679377,22.019 151.805,22.2236011 151.987339,22.3561148 C151.719131,22.5013497 151.470536,22.7340437 151.280246,23.0186831 C151.242612,22.7525956 151.134481,22.5299727 150.969634,22.3757268 C151.212399,22.2304918 151.438732,22.0200601 151.621601,21.7656339 Z M152.313322,19.1779071 C152.373749,19.3681967 152.473399,19.5277432 152.607503,19.6448852 C152.395481,19.7747486 152.19724,19.9576175 152.033984,20.1797104 C151.993699,19.9751093 151.911011,19.7991311 151.792279,19.662377 C151.983628,19.5367541 152.159607,19.371377 152.313322,19.1779071 Z M152.961579,16.5573169 C153.017765,16.7052022 153.096213,16.8324153 153.196393,16.9347158 C153.053279,17.0375464 152.919705,17.1647596 152.799913,17.3078743 C152.754858,17.1515082 152.688071,17.0152842 152.597432,16.9007923 C152.728355,16.8022022 152.850798,16.6866503 152.961579,16.5573169 Z M153.681393,13.9149945 C153.722738,14.007224 153.773093,14.0920328 153.830869,14.1657104 C153.714787,14.2542295 153.604005,14.3554699 153.503825,14.4704918 C153.469372,14.3719016 153.425377,14.2817923 153.370251,14.201224 C153.481033,14.1174754 153.584393,14.0204754 153.681393,13.9149945 Z M154.294137,22.3741366 C153.975574,22.5204317 153.680863,22.7981803 153.473612,23.144306 C153.45347,22.8013607 153.316186,22.5204317 153.096213,22.3550546 C153.380322,22.2039891 153.64323,21.9575137 153.84571,21.6532623 C153.895005,21.979776 154.052432,22.2368525 154.294137,22.3741366 Z M154.553333,19.0353224 C154.610579,19.2865683 154.735142,19.4911694 154.914301,19.623153 C154.642383,19.7678579 154.390607,20.0026721 154.199257,20.2904918 C154.161623,20.0259945 154.056142,19.8049617 153.891295,19.6533661 C154.140421,19.5086612 154.368344,19.2945191 154.553333,19.0353224 Z M155.216432,16.4497158 C155.280038,16.644776 155.383929,16.8080328 155.523333,16.926765 C155.318202,17.0566284 155.125792,17.2357869 154.966776,17.450459 C154.925432,17.2394973 154.839033,17.0598087 154.71659,16.9230546 C154.900519,16.7979617 155.069077,16.635765 155.216432,16.4497158 Z M155.908153,13.8285956 C155.959568,13.9669399 156.031656,14.0899126 156.124415,14.1879727 C155.97388,14.2950437 155.830235,14.4264973 155.704082,14.579153 C155.663268,14.4323279 155.601251,14.3019344 155.518033,14.1916831 C155.656907,14.0899126 155.788891,13.9669399 155.908153,13.8285956 Z M156.572311,11.1852131 C156.616836,11.2901639 156.673552,11.3829235 156.743519,11.4634918 C156.640689,11.5451202 156.542628,11.6384098 156.449339,11.7417705 C156.412765,11.6331093 156.36241,11.5318689 156.298273,11.4444098 C156.394213,11.3670219 156.485913,11.2800929 156.572311,11.1852131 Z M157.220568,19.6417049 C156.899885,19.7874699 156.599344,20.0668087 156.392623,20.4134645 C156.370361,20.0752896 156.236787,19.7970109 156.019995,19.6316339 C156.307284,19.4805683 156.574962,19.2319727 156.775322,18.924541 C156.826738,19.2489344 156.982574,19.5054809 157.220568,19.6417049 Z M157.458563,16.3071311 C157.517399,16.5636776 157.647262,16.770929 157.829601,16.9029126 C157.565634,17.0486776 157.319158,17.2787213 157.132579,17.5612404 C157.093885,17.2903825 156.983104,17.0672295 156.814016,16.9135137 C157.054661,16.7688087 157.277284,16.5589071 157.458563,16.3071311 Z M158.164066,13.7209945 C158.224492,13.9086339 158.323082,14.0644699 158.453475,14.1805519 C158.237743,14.3120055 158.036322,14.4985847 157.871475,14.7222678 C157.831191,14.5203169 157.750093,14.345929 157.634541,14.210765 C157.829601,14.084082 158.00823,13.9160546 158.164066,13.7209945 Z M158.798541,11.1004044 C158.854197,11.2498798 158.936885,11.3808033 159.039186,11.4831038 C158.900311,11.5859344 158.769388,11.7089071 158.650126,11.8514918 C158.607721,11.6914153 158.535634,11.552541 158.443404,11.4348689 C158.569557,11.3399891 158.68882,11.2265574 158.798541,11.1004044 Z M159.681612,16.1968798 C159.730907,16.5249836 159.893634,16.7841803 160.139579,16.9193443 C159.824197,17.0672295 159.531077,17.3412678 159.324355,17.6842131 C159.304213,17.3407377 159.164809,17.0587486 158.942186,16.8933716 C159.222585,16.742306 159.481781,16.4963607 159.681612,16.1968798 Z M160.406727,13.5789399 C160.462383,13.8264754 160.583765,14.0294863 160.758153,14.1604098 C160.484645,14.3061749 160.230749,14.540459 160.036749,14.8330492 C160.000175,14.5706721 159.894694,14.3522896 159.733557,14.201224 C159.985333,14.0559891 160.219087,13.8397268 160.406727,13.5789399 Z M161.054984,10.9917432 C161.11753,11.1894536 161.224601,11.3558907 161.367186,11.474623 C161.163115,11.6018361 160.975475,11.7815246 160.818049,11.9919563 C160.775645,11.7799344 160.687126,11.5965355 160.562563,11.4581913 C160.741191,11.3346885 160.908689,11.1751421 161.054984,10.9917432 Z M161.940175,16.0707268 C161.973568,16.4942404 162.193541,16.8128033 162.533306,16.916694 C162.107672,17.0417869 161.69741,17.4281967 161.474787,17.915847 C161.50765,17.4610601 161.344393,17.0879016 161.048093,16.9135137 C161.394749,16.7582077 161.717552,16.4523661 161.940175,16.0707268 Z M162.629246,13.4681585 C162.676421,13.7883115 162.831197,14.0437978 163.066541,14.181082 C162.743208,14.3247268 162.438956,14.6056557 162.228525,14.957612 C162.208913,14.6199672 162.077459,14.3443388 161.863847,14.1763115 C162.155377,14.0268361 162.423585,13.7771803 162.629246,13.4681585 Z M163.296055,10.8496885 C163.355951,11.1094153 163.484754,11.3193169 163.674514,11.4486503 C163.411607,11.5965355 163.169902,11.8255191 162.983322,12.1037978 C162.944628,11.8308197 162.831197,11.6018361 162.658929,11.4502404 C162.895863,11.3065956 163.117426,11.0982842 163.296055,10.8496885 Z M158.541995,20.6440383 C158.574858,20.1945519 158.417432,19.827224 158.127492,19.6470055 C158.479978,19.4954098 158.809672,19.186918 159.035475,18.7999781 C159.068869,19.2176612 159.284071,19.5346339 159.618005,19.6417049 C159.183891,19.7614973 158.769918,20.1500273 158.541995,20.6440383 Z M155.624044,23.3743497 C155.656907,22.9216831 155.49524,22.5506448 155.20106,22.3741366 C155.551956,22.2198907 155.87953,21.9135191 156.104273,21.5281694 C156.135016,21.9485027 156.352339,22.2670656 156.691044,22.3720164 C156.26276,22.494459 155.849317,22.882459 155.624044,23.3743497 Z M152.748497,26.1036011 C152.781361,25.6413934 152.614393,25.2650546 152.306962,25.0911967 C152.648317,24.9353607 152.96635,24.6316393 153.184202,24.2568907 C153.218126,24.6851749 153.441809,25.0090383 153.792705,25.1092186 C153.371311,25.2374918 152.969,25.6201913 152.748497,26.1036011 Z M154.098546,29.4858798 C154.069923,29.9777705 154.279825,30.3631202 154.645033,30.487153 C154.252262,30.5931639 153.870093,30.9096066 153.617787,31.3288798 C153.593934,30.9451202 153.425907,30.6392787 153.156109,30.4860929 C153.541459,30.3079945 153.896066,29.9369563 154.098546,29.4858798 Z M155.596481,32.2130109 C155.568918,32.6964208 155.770869,33.0775301 156.124945,33.2079235 C155.721044,33.3070437 155.328273,33.630377 155.071197,34.0597213 C155.048934,33.6839126 154.889388,33.3817814 154.628601,33.2248852 C155.027202,33.0531475 155.39082,32.6768087 155.596481,32.2130109 Z M157.053071,34.9433224 C157.020738,35.4426339 157.24071,35.8338142 157.617049,35.9493661 C157.230639,36.0606776 156.858011,36.3739399 156.611536,36.7884426 C156.586623,36.3951421 156.410115,36.084 156.129716,35.9339945 C156.506055,35.7527158 156.85218,35.3875082 157.053071,34.9433224 Z M157.794087,40.6302787 C157.82059,40.9716339 157.970596,41.2472623 158.20753,41.3962077 C157.890027,41.5308415 157.592137,41.7900383 157.371634,42.1202623 C157.33029,41.8197213 157.197776,41.5769563 156.995295,41.4243005 C157.306437,41.2599836 157.591607,40.9758743 157.794087,40.6302787 Z M158.59129,37.6709836 C158.561077,38.1581038 158.769388,38.5423934 159.125585,38.6680164 C158.726984,38.7697869 158.337923,39.0899399 158.083497,39.5150437 C158.058585,39.1381749 157.897448,38.8349836 157.633481,38.6780874 C158.023601,38.5042295 158.385628,38.1300109 158.59129,37.6709836 Z M160.063251,40.3991749 C160.034628,40.8894754 160.24082,41.2727049 160.601787,41.3983279 C160.205306,41.5022186 159.818896,41.8207814 159.56341,42.2448251 C159.541148,41.8642459 159.376301,41.5599945 159.110743,41.4046885 C159.500863,41.2303005 159.85971,40.8571421 160.063251,40.3991749 Z M158.995191,44.8479235 C158.946956,44.5187596 158.79377,44.2532022 158.556836,44.1084973 C158.836175,43.9388798 159.089541,43.6765027 159.27559,43.3584699 C159.304743,43.7321585 159.479661,44.0242186 159.75582,44.1588525 C159.46641,44.3014372 159.197672,44.5463224 158.995191,44.8479235 Z M156.830448,44.7382022 C156.773732,44.4556831 156.636978,44.2282896 156.440328,44.0841148 C156.65924,43.9335792 156.856951,43.7268579 157.018087,43.4840929 C157.063672,43.795235 157.211557,44.0433005 157.43312,44.183235 C157.209437,44.3173388 157.002716,44.5086885 156.830448,44.7382022 Z M155.889601,39.391541 C155.848787,39.0941803 155.717333,38.8503552 155.518033,38.6976995 C155.830235,38.5339126 156.118055,38.2498033 156.320005,37.9026175 C156.348628,38.2429126 156.497044,38.5158907 156.731328,38.663776 C156.412765,38.7978798 156.112224,39.0586667 155.889601,39.391541 Z M155.207421,42.0100109 C155.157066,41.758765 155.040454,41.5493934 154.878787,41.4046885 C155.127913,41.2515027 155.355836,41.0251694 155.535525,40.7548415 C155.577399,41.0363005 155.700902,41.2663443 155.889601,41.4126393 C155.635175,41.544623 155.39771,41.7524044 155.207421,42.0100109 Z M154.663585,44.5956175 C154.603158,44.3782951 154.495027,44.1970164 154.345552,44.0676831 C154.511459,43.9372896 154.663585,43.7782732 154.794508,43.5938142 C154.848574,43.8381694 154.966776,44.0385301 155.137984,44.1699836 C154.963596,44.2812951 154.804579,44.426 154.663585,44.5956175 Z M154.015858,35.9493661 C154.313749,35.7818689 154.587257,35.5067705 154.780727,35.1728361 C154.80988,35.5263825 154.971016,35.8073115 155.220142,35.9514863 C154.915361,36.0898306 154.631251,36.3447869 154.416049,36.6612295 C154.373115,36.3506175 154.23212,36.0993716 154.015858,35.9493661 Z M153.722738,39.2802295 C153.676093,39.0305738 153.561601,38.8238525 153.399404,38.6802077 C153.65224,38.5259617 153.881224,38.2996284 154.062503,38.0255902 C154.104907,38.3059891 154.22841,38.5355027 154.414459,38.6812678 C154.157913,38.8116612 153.917798,39.0220929 153.722738,39.2802295 Z M153.037907,41.8668962 C152.989142,41.6819071 152.902213,41.5213005 152.785071,41.3962077 C152.980131,41.2573333 153.16141,41.0760546 153.311415,40.8650929 C153.36124,41.079765 153.45824,41.2589235 153.595525,41.3893169 C153.393044,41.506459 153.203814,41.6718361 153.037907,41.8668962 Z M152.461738,44.4874863 C152.406612,44.329 152.326044,44.1890656 152.221093,44.0782842 C152.339825,43.9781038 152.451667,43.8652022 152.552377,43.7358689 C152.607503,43.9097268 152.694432,44.0554918 152.810514,44.1689235 C152.688071,44.2595628 152.569869,44.3666339 152.461738,44.4874863 Z M151.558525,39.1381749 C151.505519,38.955306 151.42124,38.7973497 151.306749,38.6717268 C151.505519,38.5328525 151.687858,38.3505137 151.840514,38.1369016 C151.886628,38.3483934 151.984689,38.5270219 152.119852,38.6574153 C151.914721,38.7745574 151.721781,38.9404645 151.558525,39.1381749 Z M150.83977,41.758765 C150.793656,41.6294317 150.73376,41.5154699 150.654781,41.4179399 C150.805847,41.3034481 150.946842,41.1645738 151.070344,41.0087377 C151.116989,41.1502623 151.184306,41.2758852 151.272825,41.379776 C151.118049,41.4826066 150.971754,41.6108798 150.83977,41.758765 Z M150.084973,36.4089235 C150.030377,36.2117432 149.936027,36.0442459 149.806694,35.9138525 C149.989563,35.7802787 150.15918,35.6074809 150.301235,35.4076503 C150.35424,35.6334536 150.457071,35.8205628 150.606016,35.9525464 C150.417317,36.0675683 150.239749,36.2249945 150.084973,36.4089235 Z M150.282153,44.4016175 C150.230738,44.2749344 150.162891,44.1615027 150.080732,44.0676831 C150.15547,43.999306 150.228617,43.9245683 150.298585,43.8455902 C150.34629,43.9781038 150.415727,44.0968361 150.502656,44.1943661 C150.425798,44.2569126 150.35424,44.3274098 150.282153,44.4016175 Z M149.357738,39.0305738 C149.312153,38.9038907 149.251727,38.790459 149.176459,38.693459 C149.328585,38.5779071 149.47223,38.4385027 149.598913,38.2800164 C149.642907,38.4210109 149.711284,38.5439836 149.797683,38.6468142 C149.639727,38.7507049 149.491311,38.8805683 149.357738,39.0305738 Z M149.56923,29.8399563 C149.612694,30.1245956 149.739907,30.3578197 149.932317,30.5025246 C149.683191,30.6345082 149.448377,30.8412295 149.259678,31.0940656 C149.209322,30.8391093 149.09324,30.6281475 148.923623,30.4818525 C149.168508,30.3291967 149.393781,30.1065738 149.56923,29.8399563 Z M149.922776,28.4755956 C149.880902,28.168694 149.742557,27.9195683 149.530005,27.770623 C149.835847,27.6020656 150.109885,27.325377 150.307596,26.9877322 C150.336219,27.3359781 150.489934,27.6153169 150.738,27.7600219 C150.429508,27.8994262 150.140628,28.1538525 149.922776,28.4755956 Z M151.069814,32.5681475 C151.111689,32.8448361 151.231481,33.0706393 151.41223,33.2174645 C151.154093,33.348918 150.910268,33.5609399 150.713087,33.8222568 C150.665913,33.5779016 150.555661,33.3733005 150.396645,33.2285956 C150.652661,33.077 150.888005,32.8458962 151.069814,32.5681475 Z M151.827792,29.7159235 C151.855355,30.0620492 152.008541,30.3403279 152.249186,30.4839727 C151.936984,30.6207268 151.643863,30.8788634 151.424951,31.205377 C151.382546,30.9005956 151.246322,30.6546503 151.040131,30.5035847 C151.348093,30.3382077 151.629022,30.0583388 151.827792,29.7159235 Z M152.117202,28.6006885 C152.09441,28.2121585 151.921612,27.9041967 151.645454,27.7526011 C152.028683,27.5723825 152.377459,27.2045246 152.57782,26.7566284 C152.547607,27.2527596 152.762809,27.6412896 153.134907,27.761082 C152.744787,27.868153 152.367388,28.1845956 152.117202,28.6006885 Z M152.902213,35.9716284 C152.660508,36.1025519 152.434175,36.3050328 152.251836,36.5525683 C152.200421,36.288071 152.077978,36.0712787 151.90147,35.9255137 C152.137344,35.773388 152.352016,35.5565956 152.524814,35.297929 C152.568809,35.5905191 152.701852,35.8269235 152.902213,35.9716284 Z M152.878361,33.9330383 C152.837016,33.6388579 152.709803,33.3982131 152.513683,33.2466175 C152.831716,33.0828306 153.123776,32.7966011 153.328907,32.4446448 C153.35541,32.7828197 153.500115,33.0531475 153.732809,33.2005027 C153.406825,33.3346066 153.104694,33.5969836 152.878361,33.9330383 Z M148.545694,33.6802022 C148.496929,33.5021038 148.41371,33.3462678 148.302929,33.2238251 C148.50594,33.0828306 148.690929,32.8967814 148.847825,32.679459 C148.89553,32.8877705 148.98776,33.0637486 149.120803,33.1920219 C148.913022,33.3107541 148.715842,33.4782514 148.545694,33.6802022 Z M148.657005,41.6728962 C148.618842,41.5769563 148.572197,41.4889672 148.515481,41.409459 C148.620432,41.3241202 148.721142,41.2244699 148.814962,41.1168689 C148.855246,41.2207596 148.905601,41.3166995 148.967617,41.3983279 C148.858426,41.4794262 148.754536,41.5716557 148.657005,41.6728962 Z M147.885246,36.3007923 C147.834891,36.161918 147.765984,36.0378852 147.677464,35.9339945 C147.817399,35.8248033 147.945672,35.6954699 148.059104,35.5497049 C148.110519,35.7050109 148.183667,35.8391148 148.281727,35.9451257 C148.140732,36.045306 148.006098,36.1645683 147.885246,36.3007923 Z M147.092814,30.9520109 C147.038219,30.7617213 146.95129,30.5995246 146.829377,30.4728415 C147.021787,30.3355574 147.199355,30.1579891 147.34671,29.9507377 C147.396005,30.1680601 147.496716,30.3503989 147.63718,30.4818525 C147.44,30.5974044 147.255011,30.759071 147.092814,30.9520109 Z M147.174443,38.9462951 C147.137869,38.8503552 147.092814,38.7628962 147.037158,38.6870984 C147.14529,38.5991093 147.246,38.4978689 147.343,38.3870874 C147.380634,38.4915082 147.429929,38.5826776 147.491415,38.6658962 C147.380634,38.7475246 147.275153,38.839224 147.174443,38.9462951 Z M146.345437,33.572071 C146.302503,33.4501585 146.245787,33.339377 146.171579,33.2444973 C146.329005,33.1278852 146.476361,32.9853005 146.608344,32.8215137 C146.651279,32.9593279 146.715415,33.0801803 146.799164,33.1814208 C146.634847,33.2858415 146.484842,33.4194153 146.345437,33.572071 Z M164.887279,13.3420055 C164.919082,13.7559781 165.131634,14.0708306 165.462918,14.181082 C165.028803,14.2987541 164.60794,14.6894044 164.380546,15.1876557 C164.41288,14.7408197 164.255984,14.3729617 163.967634,14.1938033 C164.325421,14.0432678 164.658825,13.7331858 164.887279,13.3420055 Z M165.519104,10.737847 C165.568399,11.0701913 165.734306,11.3320383 165.983432,11.4661421 C165.67123,11.6150874 165.38182,11.8885956 165.176689,12.2288907 C165.154426,11.8795847 165.013432,11.5965355 164.786568,11.4316885 C165.063787,11.2800929 165.321923,11.0357377 165.519104,10.737847 Z M167.776607,10.6138142 C167.80947,11.0394481 168.032093,11.3611913 168.379279,11.4619016 C167.955235,11.5896448 167.550273,11.9723443 167.32712,12.4578743 C167.358923,11.9999071 167.194077,11.6246284 166.893005,11.4502404 C167.236481,11.2949344 167.556104,10.9917432 167.776607,10.6138142 Z M161.545284,43.1294863 C161.514011,43.6478798 161.750415,44.0501913 162.154317,44.1487814 C161.782219,44.2701639 161.427082,44.5760055 161.188027,44.9751366 C161.162585,44.562224 160.970175,44.2383607 160.664863,44.0978962 C161.02477,43.912377 161.354464,43.5577705 161.545284,43.1294863 Z M165.433765,45.5523661 C165.435885,45.5449454 165.436415,45.5369945 165.438536,45.5290437 C165.637306,44.7737158 165.298071,44.1609727 164.684798,44.1609727 C164.164814,44.1609727 163.614087,44.6046284 163.339519,45.2041202 C163.377683,44.6454426 163.122197,44.212388 162.688082,44.1137978 C163.188984,43.9436503 163.656492,43.4194262 163.815508,42.8013825 C164.011628,42.0455246 163.675574,41.4317213 163.06177,41.4317213 C162.542317,41.4317213 161.98947,41.8759071 161.715432,42.4748689 C161.752005,41.9485246 161.527792,41.5340219 161.135552,41.4046885 C161.663486,41.2615738 162.167038,40.7214481 162.334536,40.0737213 C162.531716,39.3162732 162.193541,38.7035301 161.580798,38.7035301 C161.058694,38.7035301 160.507437,39.1482459 160.232869,39.7466776 C160.270503,39.2213934 160.04788,38.8074208 159.65776,38.6770273 C160.186224,38.5365628 160.692426,37.9937869 160.862574,37.345 C161.058694,36.5870219 160.721579,35.9748087 160.108306,35.9748087 C159.587262,35.9748087 159.035475,36.4184645 158.760907,37.0168962 C158.799601,36.4788907 158.562137,36.0564372 158.154525,35.9377049 C158.671328,35.7818689 159.157388,35.2507541 159.323295,34.6157486 C159.519415,33.8588306 159.183361,33.2450273 158.570617,33.2450273 C158.048514,33.2450273 157.497787,33.6897432 157.221628,34.2881749 C157.258732,33.7671311 157.03929,33.3563388 156.65553,33.2238251 C157.187705,33.0860109 157.699738,32.5411148 157.870945,31.8859672 C158.064945,31.1295792 157.730481,30.5168361 157.116148,30.5168361 C156.595104,30.5168361 156.042787,30.962082 155.769809,31.5605137 C155.805322,31.0293989 155.577399,30.6111858 155.181978,30.487153 C155.704082,30.3382077 156.202863,29.8017923 156.369831,29.1572459 C156.566481,28.401388 156.227776,27.7881148 155.615033,27.7881148 C155.093989,27.7881148 154.542732,28.2333607 154.267634,28.8302022 C154.305268,28.2974973 154.073634,27.8761038 153.671322,27.7557814 C154.190776,27.6025956 154.682667,27.0683005 154.848574,26.4295847 C155.017131,25.7770874 154.790798,25.2327213 154.33177,25.093847 C154.786027,24.9613333 155.221202,24.5484208 155.453896,24.0263169 C155.417852,24.6258087 155.736945,25.0705246 156.259579,25.0705246 C156.872322,25.0705246 157.52747,24.4577814 157.72306,23.6998033 C157.891617,23.0584372 157.672175,22.5204317 157.228519,22.3720164 C157.689667,22.2474536 158.134383,21.8303005 158.372907,21.2991858 C158.335803,21.8986776 158.654896,22.3418033 159.17753,22.3418033 C159.790273,22.3418033 160.448071,21.7290601 160.644721,20.9721421 C160.810628,20.3323661 160.594366,19.7970109 160.152301,19.6464754 C160.616628,19.5213825 161.065055,19.1036995 161.304109,18.5694044 C161.269656,19.1683661 161.589809,19.613082 162.111913,19.613082 C162.724656,19.613082 163.378743,19.0003388 163.576454,18.2423607 C163.745011,17.5967541 163.521328,17.0566284 163.071842,16.9119235 C163.531399,16.7841803 163.973995,16.3691475 164.210399,15.840153 C164.174355,16.4391148 164.495038,16.8838306 165.014492,16.8838306 C165.628825,16.8838306 166.282913,16.2716175 166.480623,15.5136393 C166.64653,14.8781038 166.435038,14.3443388 165.997213,14.191153 C166.464191,14.0697705 166.914738,13.6494372 167.158563,13.1124918 C167.120929,13.7125137 167.440552,14.1561694 167.962656,14.1561694 C168.575399,14.1561694 169.230016,13.5428962 169.427197,12.7854481 C169.595754,12.1377213 169.371011,11.5949454 168.917814,11.4518306 C169.373661,11.3209071 169.813607,10.9085246 170.046301,10.3843005 C170.010257,10.9832623 170.332,11.426388 170.853044,11.426388 C171.456246,11.426388 172.100262,10.8321967 172.306454,10.0911803 L154.214628,10.0911803 L135.808481,27.2342077 L145.923514,45.5523661 L165.433765,45.5523661 Z" id="Fill-175" fill="#C4A374"></path>
                <path d="M173.152421,11.3330984 C173.714279,11.3330984 174.31377,10.7818415 174.508831,10.0911803 L172.443738,10.0911803 C172.278891,10.7818415 172.592153,11.3330984 173.152421,11.3330984" id="Fill-176" fill="#C4A374"></path>
                <path d="M175.350027,11.193694 C175.849869,11.193694 176.382044,10.7028634 176.555372,10.0911803 L174.717142,10.0911803 C174.572967,10.7028634 174.851776,11.193694 175.350027,11.193694" id="Fill-177" fill="#C4A374"></path>
                <path d="M177.600109,11.1004044 C178.058077,11.1004044 178.547317,10.6519781 178.706333,10.0911803 L177.017579,10.0911803 C176.887716,10.6519781 177.143202,11.1004044 177.600109,11.1004044" id="Fill-178" fill="#C4A374"></path>
                <path d="M179.857612,11.0198361 C180.280066,11.0198361 180.729552,10.6053333 180.877967,10.0911803 L179.322787,10.0911803 C179.203525,10.6053333 179.439399,11.0198361 179.857612,11.0198361" id="Fill-179" fill="#C4A374"></path>
                <path d="M182.060519,10.9138251 C182.434738,10.9138251 182.833339,10.5480874 182.966913,10.0911803 L181.58135,10.0911803 C181.477989,10.5480874 181.686831,10.9138251 182.060519,10.9138251" id="Fill-180" fill="#C4A374"></path>
                <path d="M184.290459,10.8438579 C184.632344,10.8438579 184.995432,10.5104536 185.122115,10.0911803 L183.851574,10.0911803 C183.759344,10.5104536 183.946984,10.8438579 184.290459,10.8438579" id="Fill-181" fill="#C4A374"></path>
                <path d="M186.519869,10.7733607 C186.831011,10.7733607 187.162295,10.4706995 187.275197,10.0911803 L186.118617,10.0911803 C186.035399,10.4706995 186.210317,10.7733607 186.519869,10.7733607" id="Fill-182" fill="#C4A374"></path>
                <path d="M188.752459,10.6917322 C189.028087,10.6917322 189.318557,10.4256448 189.420328,10.0911803 L188.397852,10.0911803 C188.323645,10.4256448 188.477891,10.6917322 188.752459,10.6917322" id="Fill-183" fill="#C4A374"></path>
                <path d="M190.984519,10.6106339 C191.222514,10.6106339 191.47535,10.3816503 191.564929,10.0911803 L190.674967,10.0911803 C190.613481,10.3816503 190.747055,10.6106339 190.984519,10.6106339" id="Fill-184" fill="#C4A374"></path>
                <path d="M193.205448,10.5761803 C193.428071,10.5761803 193.663945,10.3609781 193.748754,10.0911803 L192.913388,10.0911803 C192.858262,10.3609781 192.983885,10.5761803 193.205448,10.5761803" id="Fill-185" fill="#C4A374"></path>
                <path d="M167.634552,45.5523661 C167.636672,45.5449454 167.640383,45.5369945 167.643033,45.5290437 C167.824311,44.8251311 167.511049,44.2532022 166.93965,44.2532022 C166.367191,44.2532022 165.756038,44.8251311 165.573169,45.5290437 C165.570519,45.5369945 165.569459,45.5449454 165.567339,45.5523661 L167.634552,45.5523661" id="Fill-186" fill="#C4A374"></path>
                <path d="M169.683213,45.5523661 C169.685333,45.5449454 169.686923,45.5369945 169.690104,45.5290437 C169.85177,44.9030492 169.572432,44.3936667 169.062519,44.3936667 C168.556317,44.3936667 168.010361,44.9030492 167.847104,45.5290437 C167.845514,45.5369945 167.845514,45.5449454 167.842333,45.5523661 L169.683213,45.5523661" id="Fill-187" fill="#C4A374"></path>
                <path d="M171.832055,45.5523661 C171.833645,45.5449454 171.836825,45.5369945 171.837355,45.5290437 C171.987891,44.9544645 171.732404,44.4874863 171.264366,44.4874863 C170.797918,44.4874863 170.299667,44.9544645 170.148601,45.5290437 C170.147011,45.5369945 170.145951,45.5449454 170.143831,45.5523661 L171.832055,45.5523661" id="Fill-188" fill="#C4A374"></path>
                <path d="M174.004219,45.5523661 C174.007399,45.5449454 174.010049,45.5369945 174.011109,45.5290437 C174.149984,45.0011093 173.910929,44.5685847 173.482645,44.5685847 C173.05118,44.5685847 172.590563,45.0011093 172.452749,45.5290437 C172.451158,45.5369945 172.450098,45.5449454 172.447448,45.5523661 L174.004219,45.5523661" id="Fill-189" fill="#C4A374"></path>
                <path d="M176.094224,45.5523661 C176.096344,45.5449454 176.098995,45.5369945 176.101115,45.5290437 C176.223557,45.0578251 176.011005,44.6751257 175.627246,44.6751257 C175.245607,44.6751257 174.834284,45.0578251 174.712372,45.5290437 C174.709721,45.5369945 174.708661,45.5449454 174.707071,45.5523661 L176.094224,45.5523661" id="Fill-190" fill="#C4A374"></path>
                <path d="M178.247836,45.5523661 C178.249426,45.5449454 178.254197,45.5369945 178.254727,45.5290437 C178.368689,45.0965191 178.172568,44.7440328 177.821672,44.7440328 C177.470246,44.7440328 177.092847,45.0965191 176.979415,45.5290437 C176.978355,45.5369945 176.976235,45.5449454 176.974645,45.5523661 L178.247836,45.5523661" id="Fill-191" fill="#C4A374"></path>
                <path d="M180.401448,45.5523661 C180.402508,45.5449454 180.406219,45.5369945 180.408869,45.5290437 C180.51329,45.134153 180.335721,44.8124098 180.016098,44.8124098 C179.692765,44.8124098 179.35035,45.134153 179.245929,45.5290437 C179.244339,45.5369945 179.244339,45.5449454 179.243279,45.5523661 L180.401448,45.5523661" id="Fill-192" fill="#C4A374"></path>
                <path d="M182.547639,45.5523661 C182.54923,45.5449454 182.55188,45.5369945 182.554,45.5290437 C182.645699,45.1802678 182.487743,44.8956284 182.205224,44.8956284 C181.922175,44.8956284 181.616863,45.1802678 181.526224,45.5290437 C181.524634,45.5369945 181.522514,45.5449454 181.521984,45.5523661 L182.547639,45.5523661" id="Fill-193" fill="#C4A374"></path>
                <path d="M184.69171,45.5523661 C184.694361,45.5449454 184.698071,45.5369945 184.699661,45.5290437 C184.78023,45.2253224 184.641355,44.9767268 184.39488,44.9767268 C184.148404,44.9767268 183.881787,45.2253224 183.802279,45.5290437 C183.801219,45.5369945 183.800689,45.5449454 183.799628,45.5523661 L184.69171,45.5523661" id="Fill-194" fill="#C4A374"></path>
                <path d="M186.875005,45.5523661 C186.876596,45.5449454 186.881366,45.5369945 186.883486,45.5290437 C186.956634,45.2438743 186.829951,45.0122404 186.597257,45.0122404 C186.364563,45.0122404 186.116497,45.2438743 186.04229,45.5290437 C186.039639,45.5369945 186.039639,45.5449454 186.036989,45.5523661 L186.875005,45.5523661" id="Fill-195" fill="#C4A374"></path>
            </g>
        </g>
    </g>
</svg>